<?xml version="1.0" encoding="UTF-8" standalone="no"?>
<!DOCTYPE svg PUBLIC "-//W3C//DTD SVG 1.1//EN" "http://www.w3.org/Graphics/SVG/1.1/DTD/svg11.dtd">
<svg version="1.1" xmlns="http://www.w3.org/2000/svg" xmlns:xlink="http://www.w3.org/1999/xlink" preserveAspectRatio="xMidYMid meet" viewBox="0 0 485 485" width="485" height="485"><defs><path d="M445.52 376.83C445.77 375.07 446.02 373.27 446.22 371.51C445.72 374.87 444.81 378.08 443.56 381.23C444.21 379.63 444.91 378.03 445.57 376.42C444.16 379.68 442.41 382.69 440.26 385.49C441.31 384.14 442.36 382.79 443.41 381.43C441.36 383.99 439.05 386.29 436.5 388.35C437.85 387.3 439.2 386.24 440.56 385.19C437.75 387.35 434.74 389.1 431.49 390.5C433.09 389.85 434.69 389.15 436.3 388.5C433.14 389.8 429.93 390.65 426.58 391.15C428.33 390.9 430.13 390.65 431.89 390.45C427.63 391 423.32 390.85 419.06 390.85C411.6 390.85 404.13 390.85 396.67 390.85C371.61 390.85 346.61 390.85 321.56 390.85C291.1 390.85 260.64 390.85 230.12 390.85C203.92 390.85 177.72 390.85 151.56 390.85C139.39 390.85 127.16 390.9 114.99 390.85C113.03 390.85 111.13 390.7 109.22 390.45C110.98 390.7 112.78 390.95 114.54 391.15C111.18 390.65 107.97 389.75 104.82 388.5C106.42 389.15 108.02 389.85 109.63 390.5C106.37 389.1 103.36 387.35 100.56 385.19C101.91 386.24 103.26 387.3 104.62 388.35C102.06 386.29 99.76 383.99 97.7 381.43C98.75 382.79 99.81 384.14 100.86 385.49C98.7 382.69 96.95 379.68 95.55 376.42C96.2 378.03 96.9 379.63 97.55 381.23C96.25 378.08 95.4 374.87 94.9 371.51C95.15 373.27 95.4 375.07 95.6 376.83C95.05 372.57 95.2 368.26 95.2 364C95.2 356.53 95.2 349.07 95.2 341.6C95.2 316.55 95.2 291.55 95.2 266.5C95.2 236.04 95.2 205.57 95.2 175.06C95.2 148.86 95.2 122.65 95.2 96.5C95.2 84.32 95.15 72.1 95.2 59.92C95.2 57.97 95.35 56.07 95.6 54.16C95.35 55.92 95.1 57.72 94.9 59.47C95.4 56.12 96.3 52.91 97.55 49.75C96.9 51.36 96.2 52.96 95.55 54.56C96.95 51.31 98.7 48.3 100.86 45.49C99.81 46.85 98.75 48.2 97.7 49.55C99.76 47 102.06 44.69 104.62 42.64C103.26 43.69 101.91 44.74 100.56 45.79C103.36 43.64 106.37 41.89 109.63 40.48C108.02 41.13 106.42 41.84 104.82 42.49C107.97 41.18 111.18 40.33 114.54 39.83C112.78 40.08 110.98 40.33 109.22 40.53C113.48 39.98 117.79 40.13 122.05 40.13C129.52 40.13 136.98 40.13 144.45 40.13C169.5 40.13 194.5 40.13 219.55 40.13C250.01 40.13 280.48 40.13 310.99 40.13C337.19 40.13 363.4 40.13 389.55 40.13C401.73 40.13 413.95 40.08 426.13 40.13C428.08 40.13 429.98 40.28 431.89 40.53C430.13 40.28 428.33 40.03 426.58 39.83C429.93 40.33 433.14 41.23 436.3 42.49C434.69 41.84 433.09 41.13 431.49 40.48C434.74 41.89 437.75 43.64 440.56 45.79C439.2 44.74 437.85 43.69 436.5 42.64C439.05 44.69 441.36 47 443.41 49.55C442.36 48.2 441.31 46.85 440.26 45.49C442.41 48.3 444.16 51.31 445.57 54.56C444.91 52.96 444.21 51.36 443.56 49.75C444.86 52.91 445.72 56.12 446.22 59.47C445.97 57.72 445.72 55.92 445.52 54.16C446.07 58.37 445.92 62.63 445.92 66.84C445.92 74.15 445.92 81.47 445.92 88.78C445.92 113.53 445.92 138.33 445.92 163.09C445.92 193.25 445.92 223.36 445.92 253.52C445.92 279.83 445.92 306.18 445.92 332.48C445.92 345.26 445.72 358.04 445.92 370.81C445.92 370.91 445.92 371.06 445.92 371.26C445.92 381.74 455.14 391.81 465.96 391.31C476.83 390.8 486 382.49 486 371.26C486 367.86 486 364.5 486 361.09C486 352.02 486 343.01 486 333.94C486 320.71 486 307.48 486 294.21C486 278.47 486 262.74 486 247.06C486 230.27 486 213.49 486 196.7C486 180.57 486 164.44 486 148.31C486 134.28 486 120.2 486 106.17C486 95.9 486 85.63 486 75.36C486 70.34 486 65.33 486 60.32C485.95 36.07 471.72 14.18 449.37 4.76C440 0.85 430.38 0 420.41 0C412.6 0 404.78 0 396.97 0C384.59 0 372.22 0 359.84 0C344.51 0 329.18 0 313.85 0C297.21 0 280.63 0 263.99 0C247.51 0 231.03 0 214.54 0C199.91 0 185.28 0 170.6 0C159.23 0 147.9 0 136.53 0C130.12 0 123.7 0 117.34 0C116.44 0 115.59 0 114.69 0C98.85 0.1 83.12 6.51 72.05 17.94C61.33 29.11 55.21 44.09 55.11 59.62C55.11 60.57 55.11 61.48 55.11 62.43C55.11 68.94 55.11 75.51 55.11 82.02C55.11 93.39 55.11 104.77 55.11 116.14C55.11 130.92 55.11 145.65 55.11 160.43C55.11 176.86 55.11 193.3 55.11 209.73C55.11 226.42 55.11 243.1 55.11 259.78C55.11 275.07 55.11 290.35 55.11 305.63C55.11 317.85 55.11 330.13 55.11 342.35C55.11 350.12 55.11 357.89 55.11 365.65C55.11 367.31 55.11 369.01 55.11 370.66C55.11 380.13 57.32 388.7 61.18 397.27C67.64 411.7 80.62 421.97 95.1 427.53C101.56 429.98 108.67 430.94 115.59 430.94C120.7 430.94 125.76 430.94 130.87 430.94C141.24 430.94 151.66 430.94 162.03 430.94C176.06 430.94 190.09 430.94 204.12 430.94C220.35 430.94 236.59 430.94 252.82 430.94C269.5 430.94 286.24 430.94 302.92 430.94C318.71 430.94 334.44 430.94 350.22 430.94C363.35 430.94 376.42 430.94 389.55 430.94C398.57 430.94 407.59 430.94 416.61 430.94C420.31 430.94 424.07 431.04 427.78 430.94C443.11 430.39 457.94 424.22 468.76 413.25C479.74 402.08 485.85 386.95 486 371.31C486.1 360.84 476.73 350.77 465.96 351.27C455.04 351.72 446.02 360.04 445.92 371.26C445.92 373.12 445.77 374.97 445.52 376.83Z" id="a2sauB91S"></path><path d="M395.41 431.94C395.66 430.19 395.91 428.38 396.11 426.63C395.61 429.98 394.71 433.19 393.41 436.3C394.06 434.69 394.76 433.09 395.41 431.49C394.11 434.54 392.46 437.35 390.45 440.01C391.5 438.65 392.56 437.3 393.61 435.95C391.45 438.75 389 441.21 386.24 443.36C387.6 442.31 388.95 441.26 390.3 440.21C387.5 442.36 384.44 444.11 381.18 445.52C382.79 444.87 384.39 444.16 385.99 443.51C382.84 444.82 379.63 445.67 376.27 446.17C378.03 445.92 379.83 445.67 381.58 445.47C377.33 446.02 372.92 445.87 368.61 445.87C360.99 445.87 353.43 445.87 345.81 445.87C320.36 445.87 294.91 445.87 269.45 445.87C238.49 445.87 207.53 445.87 176.56 445.87C149.96 445.87 123.35 445.87 96.75 445.87C84.37 445.87 72 445.92 59.62 445.87C57.72 445.87 55.76 445.72 53.86 445.47C55.61 445.72 57.42 445.97 59.17 446.17C55.81 445.67 52.61 444.77 49.5 443.51C51.11 444.16 52.71 444.87 54.31 445.52C51.11 444.11 48.1 442.36 45.29 440.21C46.65 441.26 48 442.31 49.35 443.36C46.8 441.31 44.49 439 42.49 436.45C43.54 437.8 44.59 439.15 45.64 440.51C43.49 437.7 41.74 434.69 40.38 431.44C41.03 433.04 41.74 434.64 42.39 436.25C41.13 433.14 40.23 429.88 39.73 426.58C39.98 428.33 40.23 430.14 40.43 431.89C39.88 427.63 40.03 423.22 40.03 418.96C40.03 411.35 40.03 403.78 40.03 396.17C40.03 370.71 40.03 345.26 40.03 319.81C40.03 288.84 40.03 257.88 40.03 226.92C40.03 200.31 40.03 173.71 40.03 147.1C40.03 134.73 39.98 122.35 40.03 109.98C40.03 108.02 40.18 106.12 40.43 104.21C40.18 105.97 39.93 107.77 39.73 109.53C40.23 106.17 41.08 102.96 42.39 99.81C41.74 101.41 41.03 103.01 40.38 104.62C41.79 101.36 43.54 98.35 45.64 95.55C44.59 96.9 43.54 98.25 42.49 99.6C44.64 96.85 47.1 94.39 49.9 92.24C48.55 93.29 47.2 94.34 45.84 95.4C48.5 93.44 51.31 91.79 54.36 90.49C52.76 91.14 51.16 91.84 49.55 92.49C52.66 91.19 55.86 90.34 59.22 89.83C57.47 90.09 55.66 90.34 53.91 90.54C60.88 89.63 68.14 90.14 75.15 90.14C68.49 83.47 61.78 76.76 55.11 70.09C55.11 81.12 55.11 92.19 55.11 103.21C55.11 129.32 55.11 155.42 55.11 181.47C55.11 212.04 55.11 242.65 55.11 273.21C55.11 297.71 55.11 322.21 55.11 346.71C55.11 353.38 55.11 360.04 55.11 366.75C55.11 368.11 55.11 369.46 55.11 370.81C55.16 380.58 57.52 389.55 61.68 398.32C71.25 418.41 93.19 430.74 115.04 430.79C119.3 430.79 123.55 430.79 127.81 430.79C149.26 430.79 170.7 430.79 192.2 430.79C222.26 430.79 252.32 430.79 282.43 430.79C310.54 430.79 338.65 430.79 366.8 430.79C382.44 430.79 398.07 430.79 413.7 430.79C414.4 430.79 415.15 430.79 415.85 430.79C426.33 430.79 436.4 421.57 435.9 410.75C435.4 399.87 427.08 390.7 415.85 390.7C405.68 390.7 395.51 390.7 385.34 390.7C360.99 390.7 336.64 390.7 312.29 390.7C282.98 390.7 253.67 390.7 224.36 390.7C199.46 390.7 174.51 390.7 149.61 390.7C137.98 390.7 126.36 390.75 114.74 390.7C112.83 390.7 110.93 390.55 109.02 390.3C110.78 390.55 112.58 390.8 114.34 391C110.98 390.5 107.77 389.6 104.67 388.35C106.27 389 107.87 389.7 109.48 390.35C106.27 388.95 103.26 387.2 100.46 385.04C101.81 386.09 103.16 387.15 104.51 388.2C101.96 386.14 99.65 383.84 97.65 381.28C98.7 382.64 99.76 383.99 100.81 385.34C98.65 382.54 96.9 379.53 95.55 376.27C96.2 377.88 96.9 379.48 97.55 381.08C96.3 377.98 95.4 374.72 94.9 371.41C95.15 373.17 95.4 374.97 95.6 376.73C95.05 372.62 95.2 368.46 95.2 364.35C95.2 357.29 95.2 350.22 95.2 343.16C95.2 319.31 95.2 295.41 95.2 271.56C95.2 242.35 95.2 213.14 95.2 183.93C95.2 158.48 95.2 133.02 95.2 107.57C95.2 95.25 95.35 82.92 95.2 70.6C95.2 70.39 95.2 70.24 95.2 70.04C95.2 59.22 86.03 50 75.15 50C68.14 50 60.88 49.5 53.91 50.4C44.59 51.56 35.67 54.01 27.76 59.22C20.09 64.33 13.68 70.65 8.77 78.51C1.65 89.83 0 102.56 0 115.54C0 124.41 0 133.22 0 142.09C0 156.32 0 170.5 0 184.73C0 202.12 0 219.5 0 236.84C0 255.38 0 273.91 0 292.45C0 310.14 0 327.87 0 345.56C0 360.19 0 374.82 0 389.5C0 399.12 0 408.79 0 418.41C0 427.63 -0.05 436.85 3.26 445.67C6.51 454.33 10.97 462.15 17.64 468.71C24.25 475.28 32.07 479.79 40.78 482.89C47.1 485.2 54.01 485.95 60.67 485.95C67.04 485.95 73.4 485.95 79.81 485.95C92.24 485.95 104.67 485.95 117.04 485.95C133.52 485.95 150.01 485.95 166.49 485.95C184.83 485.95 203.17 485.95 221.51 485.95C239.69 485.95 257.93 485.95 276.12 485.95C292.2 485.95 308.23 485.95 324.32 485.95C336.04 485.95 347.77 485.95 359.49 485.95C364.9 485.95 370.26 485.95 375.67 485.95C386.85 485.9 398.47 482.89 407.89 476.78C415.65 471.72 422.02 465.36 427.03 457.54C432.19 449.47 434.54 440.56 435.65 431.24C436.45 424.52 435.95 417.56 435.95 410.85C435.95 400.37 426.73 390.3 415.91 390.8C404.98 391.31 395.81 399.62 395.81 410.85C395.81 417.81 396.36 425.02 395.41 431.94Z" id="a7s7ft36DS"></path><path d="M290.6 289.25C290.6 274.62 290.6 259.93 290.6 245.3C290.6 227.57 290.6 209.88 290.6 192.15C290.6 176.76 290.6 161.38 290.6 145.95C290.6 138.48 290.75 131.02 290.6 123.6C290.6 123.5 290.6 123.4 290.6 123.25C290.6 112.78 281.38 102.71 270.56 103.21C259.68 103.71 250.52 112.03 250.52 123.25C250.52 129.37 250.52 135.53 250.52 141.64C250.52 156.27 250.52 170.95 250.52 185.58C250.52 203.32 250.52 221 250.52 238.74C250.52 254.12 250.52 269.5 250.52 284.94C250.52 292.4 250.36 299.87 250.52 307.28C250.52 307.38 250.52 307.48 250.52 307.63C250.52 318.1 259.73 328.18 270.56 327.67C281.43 327.17 290.6 318.86 290.6 307.63C290.6 307.63 290.6 307.63 290.6 307.63C290.6 299.45 290.6 293.32 290.6 289.25Z" id="b4ytT0hjJ"></path><path d="M344.36 195.4C329.73 195.4 315.05 195.4 300.42 195.4C282.68 195.4 264.99 195.4 247.26 195.4C231.88 195.4 216.5 195.4 201.06 195.4C193.6 195.4 186.13 195.25 178.72 195.4C178.62 195.4 178.52 195.4 178.37 195.4C167.9 195.4 157.82 204.62 158.33 215.44C158.83 226.32 167.14 235.48 178.37 235.48C184.48 235.48 190.64 235.48 196.75 235.48C211.38 235.48 226.06 235.48 240.69 235.48C258.43 235.48 276.12 235.48 293.85 235.48C309.24 235.48 324.62 235.48 340.05 235.48C347.51 235.48 354.98 235.63 362.4 235.48C362.5 235.48 362.6 235.48 362.75 235.48C373.22 235.48 383.29 226.27 382.79 215.44C382.29 204.57 373.97 195.4 362.75 195.4C362.75 195.4 362.75 195.4 362.75 195.4C354.56 195.4 348.43 195.4 344.36 195.4Z" id="a9EzmEO8"></path></defs><g><g><g><use xlink:href="#a2sauB91S" opacity="1" fill="#000000" fill-opacity="1"></use><g><use xlink:href="#a2sauB91S" opacity="1" fill-opacity="0" stroke="#000000" stroke-width="1" stroke-opacity="0"></use></g></g><g><use xlink:href="#a7s7ft36DS" opacity="1" fill="#000000" fill-opacity="1"></use><g><use xlink:href="#a7s7ft36DS" opacity="1" fill-opacity="0" stroke="#000000" stroke-width="1" stroke-opacity="0"></use></g></g><g><use xlink:href="#b4ytT0hjJ" opacity="1" fill="#000000" fill-opacity="1"></use><g><use xlink:href="#b4ytT0hjJ" opacity="1" fill-opacity="0" stroke="#000000" stroke-width="1" stroke-opacity="0"></use></g></g><g><use xlink:href="#a9EzmEO8" opacity="1" fill="#000000" fill-opacity="1"></use><g><use xlink:href="#a9EzmEO8" opacity="1" fill-opacity="0" stroke="#000000" stroke-width="1" stroke-opacity="0"></use></g></g></g></g></svg>