<?xml version="1.0" encoding="UTF-8" standalone="no"?>
<!DOCTYPE svg PUBLIC "-//W3C//DTD SVG 1.1//EN" "http://www.w3.org/Graphics/SVG/1.1/DTD/svg11.dtd">
<svg version="1.1" xmlns="http://www.w3.org/2000/svg" xmlns:xlink="http://www.w3.org/1999/xlink" preserveAspectRatio="xMidYMid meet" viewBox="0 0 486 486" width="486" height="486"><defs><path d="M446.1 377.55C446.35 375.8 446.6 374 446.8 372.25C446.3 375.6 445.4 378.8 444.15 381.95C444.8 380.35 445.5 378.75 446.15 377.15C444.75 380.4 443 383.4 440.85 386.2C441.9 384.85 442.95 383.5 444 382.15C441.95 384.7 439.65 387 437.1 389.05C438.45 388 439.8 386.95 441.15 385.9C438.35 388.05 435.35 389.8 432.1 391.2C433.7 390.55 435.3 389.85 436.9 389.2C433.75 390.5 430.55 391.35 427.2 391.85C428.95 391.6 430.75 391.35 432.5 391.15C428.25 391.7 423.95 391.55 419.7 391.55C412.25 391.55 404.8 391.55 397.35 391.55C372.35 391.55 347.4 391.55 322.4 391.55C292 391.55 261.6 391.55 231.15 391.55C205 391.55 178.85 391.55 152.75 391.55C140.6 391.55 128.4 391.6 116.25 391.55C114.3 391.55 112.4 391.4 110.5 391.15C112.25 391.4 114.05 391.65 115.8 391.85C112.45 391.35 109.25 390.45 106.1 389.2C107.7 389.85 109.3 390.55 110.9 391.2C107.65 389.8 104.65 388.05 101.85 385.9C103.2 386.95 104.55 388 105.9 389.05C103.35 387 101.05 384.7 99 382.15C100.05 383.5 101.1 384.85 102.15 386.2C100 383.4 98.25 380.4 96.85 377.15C97.5 378.75 98.2 380.35 98.85 381.95C97.55 378.8 96.7 375.6 96.2 372.25C96.45 374 96.7 375.8 96.9 377.55C96.35 373.3 96.5 369 96.5 364.75C96.5 357.3 96.5 349.85 96.5 342.4C96.5 317.4 96.5 292.45 96.5 267.45C96.5 237.05 96.5 206.65 96.5 176.2C96.5 150.05 96.5 123.9 96.5 97.8C96.5 85.65 96.45 73.45 96.5 61.3C96.5 59.35 96.65 57.45 96.9 55.55C96.65 57.3 96.4 59.1 96.2 60.85C96.7 57.5 97.6 54.3 98.85 51.15C98.2 52.75 97.5 54.35 96.85 55.95C98.25 52.7 100 49.7 102.15 46.9C101.1 48.25 100.05 49.6 99 50.95C101.05 48.4 103.35 46.1 105.9 44.05C104.55 45.1 103.2 46.15 101.85 47.2C104.65 45.05 107.65 43.3 110.9 41.9C109.3 42.55 107.7 43.25 106.1 43.9C109.25 42.6 112.45 41.75 115.8 41.25C114.05 41.5 112.25 41.75 110.5 41.95C114.75 41.4 119.05 41.55 123.3 41.55C130.75 41.55 138.2 41.55 145.65 41.55C170.65 41.55 195.6 41.55 220.6 41.55C251 41.55 281.4 41.55 311.85 41.55C338 41.55 364.15 41.55 390.25 41.55C402.4 41.55 414.6 41.5 426.75 41.55C428.7 41.55 430.6 41.7 432.5 41.95C430.75 41.7 428.95 41.45 427.2 41.25C430.55 41.75 433.75 42.65 436.9 43.9C435.3 43.25 433.7 42.55 432.1 41.9C435.35 43.3 438.35 45.05 441.15 47.2C439.8 46.15 438.45 45.1 437.1 44.05C439.65 46.1 441.95 48.4 444 50.95C442.95 49.6 441.9 48.25 440.85 46.9C443 49.7 444.75 52.7 446.15 55.95C445.5 54.35 444.8 52.75 444.15 51.15C445.45 54.3 446.3 57.5 446.8 60.85C446.55 59.1 446.3 57.3 446.1 55.55C446.65 59.75 446.5 64 446.5 68.2C446.5 75.5 446.5 82.8 446.5 90.1C446.5 114.8 446.5 139.55 446.5 164.25C446.5 194.35 446.5 224.4 446.5 254.5C446.5 280.75 446.5 307.05 446.5 333.3C446.5 346.05 446.3 358.8 446.5 371.55C446.5 371.65 446.5 371.8 446.5 372C446.5 382.45 455.7 392.5 466.5 392C477.35 391.5 486.5 383.2 486.5 372C486.5 368.6 486.5 365.25 486.5 361.85C486.5 352.8 486.5 343.8 486.5 334.75C486.5 321.55 486.5 308.35 486.5 295.1C486.5 279.4 486.5 263.7 486.5 248.05C486.5 231.3 486.5 214.55 486.5 197.8C486.5 181.7 486.5 165.6 486.5 149.5C486.5 135.5 486.5 121.45 486.5 107.45C486.5 97.2 486.5 86.95 486.5 76.7C486.5 71.7 486.5 66.7 486.5 61.7C486.45 37.5 472.25 15.65 449.95 6.25C440.6 2.35 431 1.5 421.05 1.5C413.25 1.5 405.45 1.5 397.65 1.5C385.3 1.5 372.95 1.5 360.6 1.5C345.3 1.5 330 1.5 314.7 1.5C298.1 1.5 281.55 1.5 264.95 1.5C248.5 1.5 232.05 1.5 215.6 1.5C201 1.5 186.4 1.5 171.75 1.5C160.4 1.5 149.1 1.5 137.75 1.5C131.35 1.5 124.95 1.5 118.6 1.5C117.7 1.5 116.85 1.5 115.95 1.5C100.15 1.6 84.45 8 73.4 19.4C62.7 30.55 56.6 45.5 56.5 61C56.5 61.95 56.5 62.85 56.5 63.8C56.5 70.3 56.5 76.85 56.5 83.35C56.5 94.7 56.5 106.05 56.5 117.4C56.5 132.15 56.5 146.85 56.5 161.6C56.5 178 56.5 194.4 56.5 210.8C56.5 227.45 56.5 244.1 56.5 260.75C56.5 276 56.5 291.25 56.5 306.5C56.5 318.7 56.5 330.95 56.5 343.15C56.5 350.9 56.5 358.65 56.5 366.4C56.5 368.05 56.5 369.75 56.5 371.4C56.5 380.85 58.7 389.4 62.55 397.95C69 412.35 81.95 422.6 96.4 428.15C102.85 430.6 109.95 431.55 116.85 431.55C121.95 431.55 127 431.55 132.1 431.55C142.45 431.55 152.85 431.55 163.2 431.55C177.2 431.55 191.2 431.55 205.2 431.55C221.4 431.55 237.6 431.55 253.8 431.55C270.45 431.55 287.15 431.55 303.8 431.55C319.55 431.55 335.25 431.55 351 431.55C364.1 431.55 377.15 431.55 390.25 431.55C399.25 431.55 408.25 431.55 417.25 431.55C420.95 431.55 424.7 431.65 428.4 431.55C443.7 431 458.5 424.85 469.3 413.9C480.25 402.75 486.35 387.65 486.5 372.05C486.6 361.6 477.25 351.55 466.5 352.05C455.6 352.5 446.6 360.8 446.5 372C446.5 373.85 446.35 375.7 446.1 377.55Z" id="dDcVNMajy"></path><path d="M396.1 432.55C396.35 430.8 396.6 429 396.8 427.25C396.3 430.6 395.4 433.8 394.1 436.9C394.75 435.3 395.45 433.7 396.1 432.1C394.8 435.15 393.15 437.95 391.15 440.6C392.2 439.25 393.25 437.9 394.3 436.55C392.15 439.35 389.7 441.8 386.95 443.95C388.3 442.9 389.65 441.85 391 440.8C388.2 442.95 385.15 444.7 381.9 446.1C383.5 445.45 385.1 444.75 386.7 444.1C383.55 445.4 380.35 446.25 377 446.75C378.75 446.5 380.55 446.25 382.3 446.05C378.05 446.6 373.65 446.45 369.35 446.45C361.75 446.45 354.2 446.45 346.6 446.45C321.2 446.45 295.8 446.45 270.4 446.45C239.5 446.45 208.6 446.45 177.7 446.45C151.15 446.45 124.6 446.45 98.05 446.45C85.7 446.45 73.35 446.5 61 446.45C59.1 446.45 57.15 446.3 55.25 446.05C57 446.3 58.8 446.55 60.55 446.75C57.2 446.25 54 445.35 50.9 444.1C52.5 444.75 54.1 445.45 55.7 446.1C52.5 444.7 49.5 442.95 46.7 440.8C48.05 441.85 49.4 442.9 50.75 443.95C48.2 441.9 45.9 439.6 43.9 437.05C44.95 438.4 46 439.75 47.05 441.1C44.9 438.3 43.15 435.3 41.8 432.05C42.45 433.65 43.15 435.25 43.8 436.85C42.55 433.75 41.65 430.5 41.15 427.2C41.4 428.95 41.65 430.75 41.85 432.5C41.3 428.25 41.45 423.85 41.45 419.6C41.45 412 41.45 404.45 41.45 396.85C41.45 371.45 41.45 346.05 41.45 320.65C41.45 289.75 41.45 258.85 41.45 227.95C41.45 201.4 41.45 174.85 41.45 148.3C41.45 135.95 41.4 123.6 41.45 111.25C41.45 109.3 41.6 107.4 41.85 105.5C41.6 107.25 41.35 109.05 41.15 110.8C41.65 107.45 42.5 104.25 43.8 101.1C43.15 102.7 42.45 104.3 41.8 105.9C43.2 102.65 44.95 99.65 47.05 96.85C46 98.2 44.95 99.55 43.9 100.9C46.05 98.15 48.5 95.7 51.3 93.55C49.95 94.6 48.6 95.65 47.25 96.7C49.9 94.75 52.7 93.1 55.75 91.8C54.15 92.45 52.55 93.15 50.95 93.8C54.05 92.5 57.25 91.65 60.6 91.15C58.85 91.4 57.05 91.65 55.3 91.85C62.25 90.95 69.5 91.45 76.5 91.45C69.85 84.8 63.15 78.1 56.5 71.45C56.5 82.45 56.5 93.5 56.5 104.5C56.5 130.55 56.5 156.6 56.5 182.6C56.5 213.1 56.5 243.65 56.5 274.15C56.5 298.6 56.5 323.05 56.5 347.5C56.5 354.15 56.5 360.8 56.5 367.5C56.5 368.85 56.5 370.2 56.5 371.55C56.55 381.3 58.9 390.25 63.05 399C72.6 419.05 94.5 431.35 116.3 431.4C120.55 431.4 124.8 431.4 129.05 431.4C150.45 431.4 171.85 431.4 193.3 431.4C223.3 431.4 253.3 431.4 283.35 431.4C311.4 431.4 339.45 431.4 367.55 431.4C383.15 431.4 398.75 431.4 414.35 431.4C415.05 431.4 415.8 431.4 416.5 431.4C426.95 431.4 437 422.2 436.5 411.4C436 400.55 427.7 391.4 416.5 391.4C406.35 391.4 396.2 391.4 386.05 391.4C361.75 391.4 337.45 391.4 313.15 391.4C283.9 391.4 254.65 391.4 225.4 391.4C200.55 391.4 175.65 391.4 150.8 391.4C139.2 391.4 127.6 391.45 116 391.4C114.1 391.4 112.2 391.25 110.3 391C112.05 391.25 113.85 391.5 115.6 391.7C112.25 391.2 109.05 390.3 105.95 389.05C107.55 389.7 109.15 390.4 110.75 391.05C107.55 389.65 104.55 387.9 101.75 385.75C103.1 386.8 104.45 387.85 105.8 388.9C103.25 386.85 100.95 384.55 98.95 382C100 383.35 101.05 384.7 102.1 386.05C99.95 383.25 98.2 380.25 96.85 377C97.5 378.6 98.2 380.2 98.85 381.8C97.6 378.7 96.7 375.45 96.2 372.15C96.45 373.9 96.7 375.7 96.9 377.45C96.35 373.35 96.5 369.2 96.5 365.1C96.5 358.05 96.5 351 96.5 343.95C96.5 320.15 96.5 296.3 96.5 272.5C96.5 243.35 96.5 214.2 96.5 185.05C96.5 159.65 96.5 134.25 96.5 108.85C96.5 96.55 96.65 84.25 96.5 71.95C96.5 71.75 96.5 71.6 96.5 71.4C96.5 60.6 87.35 51.4 76.5 51.4C69.5 51.4 62.25 50.9 55.3 51.8C46 52.95 37.1 55.4 29.2 60.6C21.55 65.7 15.15 72 10.25 79.85C3.15 91.15 1.5 103.85 1.5 116.8C1.5 125.65 1.5 134.45 1.5 143.3C1.5 157.5 1.5 171.65 1.5 185.85C1.5 203.2 1.5 220.55 1.5 237.85C1.5 256.35 1.5 274.85 1.5 293.35C1.5 311 1.5 328.7 1.5 346.35C1.5 360.95 1.5 375.55 1.5 390.2C1.5 399.8 1.5 409.45 1.5 419.05C1.5 428.25 1.45 437.45 4.75 446.25C8 454.9 12.45 462.7 19.1 469.25C25.7 475.8 33.5 480.3 42.2 483.4C48.5 485.7 55.4 486.45 62.05 486.45C68.4 486.45 74.75 486.45 81.15 486.45C93.55 486.45 105.95 486.45 118.3 486.45C134.75 486.45 151.2 486.45 167.65 486.45C185.95 486.45 204.25 486.45 222.55 486.45C240.7 486.45 258.9 486.45 277.05 486.45C293.1 486.45 309.1 486.45 325.15 486.45C336.85 486.45 348.55 486.45 360.25 486.45C365.65 486.45 371 486.45 376.4 486.45C387.55 486.4 399.15 483.4 408.55 477.3C416.3 472.25 422.65 465.9 427.65 458.1C432.8 450.05 435.15 441.15 436.25 431.85C437.05 425.15 436.55 418.2 436.55 411.5C436.55 401.05 427.35 391 416.55 391.5C405.65 392 396.5 400.3 396.5 411.5C396.5 418.45 397.05 425.65 396.1 432.55Z" id="baUL5XyU8"></path><path d="M355.73 206.69C355.73 195.28 355.73 183.84 355.73 172.44C355.73 158.61 355.73 144.82 355.73 131C355.73 119.01 355.73 107.02 355.73 94.99C355.73 89.17 355.85 83.35 355.73 77.57C355.73 77.49 355.73 77.41 355.73 77.3C355.73 69.13 348.55 61.28 340.11 61.67C331.64 62.06 324.5 68.55 324.5 77.3C324.5 82.06 324.5 86.86 324.5 91.63C324.5 103.03 324.5 114.48 324.5 125.88C324.5 139.71 324.5 153.49 324.5 167.32C324.5 179.31 324.5 191.3 324.5 203.33C324.5 209.15 324.38 214.97 324.5 220.75C324.5 220.83 324.5 220.91 324.5 221.02C324.5 229.19 331.68 237.04 340.11 236.64C348.59 236.25 355.73 229.77 355.73 221.02C355.73 221.02 355.73 221.02 355.73 221.02C355.73 214.64 355.73 209.87 355.73 206.69Z" id="cltsRaWfg"></path><path d="M397.64 133.54C386.24 133.54 374.8 133.54 363.39 133.54C349.57 133.54 335.78 133.54 321.95 133.54C309.96 133.54 297.97 133.54 285.94 133.54C280.12 133.54 274.3 133.42 268.52 133.54C268.45 133.54 268.37 133.54 268.25 133.54C260.09 133.54 252.24 140.72 252.63 149.16C253.02 157.63 259.5 164.78 268.25 164.78C273.01 164.78 277.82 164.78 282.58 164.78C293.99 164.78 305.43 164.78 316.84 164.78C330.66 164.78 344.45 164.78 358.27 164.78C370.26 164.78 382.26 164.78 394.28 164.78C400.1 164.78 405.92 164.9 411.7 164.78C411.78 164.78 411.86 164.78 411.98 164.78C420.14 164.78 427.99 157.6 427.6 149.16C427.21 140.68 420.73 133.54 411.98 133.54C411.98 133.54 411.98 133.54 411.98 133.54C405.6 133.54 400.82 133.54 397.64 133.54Z" id="abHcewG4"></path><path d="M149.64 236.78L150.92 236.94L152.18 237.15L153.43 237.42L154.65 237.74L155.85 238.12L157.03 238.56L158.18 239.04L159.31 239.58L160.41 240.16L161.48 240.79L162.52 241.47L163.52 242.2L164.5 242.96L165.44 243.77L166.34 244.62L167.21 245.51L168.04 246.44L168.83 247.41L169.57 248.41L170.28 249.44L170.94 250.51L171.56 251.61L172.12 252.74L172.65 253.89L173.12 255.08L173.54 256.29L173.91 257.52L174.23 258.78L174.49 260.06L174.7 261.36L174.84 262.67L174.93 264.01L174.97 265.36L174.93 266.71L174.84 268.05L174.7 269.36L174.49 270.66L174.23 271.94L173.98 272.92L198.68 292.32L241.02 259.27L242.35 258.34L243.67 257.52L244.96 256.82L246.24 256.21L247.48 255.71L248.71 255.3L249.91 254.98L251.09 254.75L252.24 254.6L253.36 254.52L254.46 254.52L255.52 254.58L256.56 254.71L257.58 254.89L258.56 255.13L259.51 255.41L260.43 255.74L261.32 256.11L262.17 256.51L263 256.94L263.79 257.39L264.54 257.87L265.26 258.36L265.94 258.86L266.59 259.36L267.2 259.87L267.78 260.37L268.31 260.87L268.81 261.35L269.26 261.82L269.68 262.26L270.05 262.68L270.39 263.07L270.68 263.42L270.93 263.72L271.13 263.99L271.29 264.2L271.41 264.36L271.48 264.46L271.5 264.49L217.31 306.24L271.5 347.98L270.73 348.98L269.94 349.9L269.14 350.74L268.32 351.51L267.49 352.2L266.65 352.82L265.81 353.38L264.96 353.87L264.1 354.3L263.24 354.67L262.39 354.98L261.53 355.25L260.68 355.46L259.83 355.63L259 355.75L258.17 355.83L257.35 355.87L256.55 355.88L255.76 355.86L254.99 355.81L254.24 355.73L253.5 355.63L252.8 355.51L252.11 355.37L251.46 355.22L250.83 355.05L250.23 354.88L249.66 354.7L249.13 354.52L248.64 354.34L248.18 354.16L247.76 353.99L247.39 353.83L247.06 353.68L246.77 353.55L246.53 353.43L246.34 353.33L246.21 353.26L246.12 353.22L246.1 353.2L198.68 318.41L173.73 336.92L173.91 337.53L174.23 338.79L174.49 340.07L174.7 341.37L174.84 342.69L174.93 344.02L174.97 345.37L174.93 346.72L174.84 348.06L174.7 349.38L174.49 350.67L174.23 351.95L173.91 353.21L173.54 354.44L173.12 355.65L172.65 356.84L172.12 357.99L171.56 359.12L170.94 360.22L170.28 361.29L169.57 362.32L168.83 363.32L168.04 364.29L167.21 365.22L166.34 366.11L165.44 366.96L164.5 367.77L163.52 368.54L162.52 369.26L161.48 369.94L160.41 370.57L159.31 371.16L158.18 371.69L157.03 372.18L155.85 372.61L154.65 372.99L153.43 373.31L152.18 373.58L150.92 373.8L149.64 373.95L148.34 374.04L147.02 374.07L145.71 374.04L144.41 373.95L143.12 373.8L141.86 373.58L140.61 373.31L139.39 372.99L138.19 372.61L137.01 372.18L135.86 371.69L134.73 371.16L133.63 370.57L132.56 369.94L131.52 369.26L130.52 368.54L129.54 367.77L128.6 366.96L127.7 366.11L126.83 365.22L126 364.29L125.22 363.32L124.47 362.32L123.76 361.29L123.1 360.22L122.49 359.12L121.92 357.99L121.4 356.84L120.92 355.65L120.5 354.44L120.13 353.21L119.81 351.95L119.55 350.67L119.35 349.38L119.2 348.06L119.11 346.72L119.08 345.37L119.11 344.02L119.2 342.69L119.35 341.37L119.55 340.07L119.81 338.79L120.13 337.53L120.5 336.3L120.92 335.09L121.4 333.91L121.92 332.75L122.49 331.62L123.1 330.52L123.76 329.46L124.47 328.42L125.22 327.42L126 326.46L126.83 325.53L127.7 324.64L128.6 323.79L129.54 322.98L130.52 322.21L131.52 321.49L132.56 320.81L133.63 320.17L134.73 319.59L135.86 319.05L137.01 318.57L138.19 318.14L139.39 317.76L140.61 317.43L141.86 317.16L143.12 316.95L144.41 316.8L145.71 316.7L147.02 316.67L148.34 316.7L149.64 316.8L150.92 316.95L152.18 317.16L153.43 317.43L154.65 317.76L155.85 318.14L157.03 318.57L158.18 319.05L159.31 319.59L160.41 320.17L161.48 320.81L162.52 321.49L162.69 321.61L181.74 306.24L161.51 289.91L161.48 289.93L160.41 290.56L159.31 291.14L158.18 291.68L157.03 292.16L155.85 292.6L154.65 292.98L153.43 293.3L152.18 293.57L150.92 293.78L149.64 293.94L148.34 294.03L147.02 294.06L145.71 294.03L144.41 293.94L143.12 293.78L141.86 293.57L140.61 293.3L139.39 292.98L138.19 292.6L137.01 292.16L135.86 291.68L134.73 291.14L133.63 290.56L132.56 289.93L131.52 289.25L130.52 288.52L129.54 287.75L128.6 286.94L127.7 286.09L126.83 285.2L126 284.28L125.22 283.31L124.47 282.31L123.76 281.27L123.1 280.21L122.49 279.11L121.92 277.98L121.4 276.82L120.92 275.64L120.5 274.43L120.13 273.2L119.81 271.94L119.55 270.66L119.35 269.36L119.2 268.05L119.11 266.71L119.08 265.36L119.11 264.01L119.2 262.67L119.35 261.36L119.55 260.06L119.81 258.78L120.13 257.52L120.5 256.29L120.92 255.08L121.4 253.89L121.92 252.74L122.49 251.61L123.1 250.51L123.76 249.44L124.47 248.41L125.22 247.41L126 246.44L126.83 245.51L127.7 244.62L128.6 243.77L129.54 242.96L130.52 242.2L131.52 241.47L132.56 240.79L133.63 240.16L134.73 239.58L135.86 239.04L137.01 238.56L138.19 238.12L139.39 237.74L140.61 237.42L141.86 237.15L143.12 236.94L144.41 236.78L145.71 236.69L147.02 236.66L148.34 236.69L149.64 236.78ZM144.41 329.06L143.15 329.33L141.93 329.69L140.76 330.15L139.63 330.69L138.55 331.32L137.52 332.04L136.55 332.83L135.64 333.69L134.8 334.62L134.04 335.61L133.34 336.67L132.73 337.78L132.2 338.94L131.75 340.15L131.4 341.4L131.14 342.69L130.98 344.02L130.93 345.37L130.98 346.73L131.14 348.05L131.4 349.34L131.75 350.6L132.2 351.8L132.73 352.97L133.34 354.08L134.04 355.13L134.8 356.13L135.64 357.06L136.55 357.92L137.52 358.71L138.55 359.42L139.63 360.05L140.76 360.6L141.93 361.05L143.15 361.42L144.41 361.68L145.7 361.84L147.02 361.9L148.34 361.84L149.63 361.68L150.89 361.42L152.11 361.05L153.28 360.6L154.41 360.05L155.5 359.42L156.52 358.71L157.49 357.92L158.4 357.06L159.24 356.13L160.01 355.13L160.7 354.08L161.31 352.97L161.85 351.8L162.29 350.6L162.64 349.34L162.9 348.05L163.06 346.73L163.11 345.37L163.06 344.02L162.9 342.69L162.64 341.4L162.29 340.15L161.85 338.94L161.31 337.78L160.7 336.67L160.01 335.61L159.24 334.62L158.4 333.69L157.49 332.83L156.52 332.04L155.5 331.32L154.41 330.69L153.28 330.15L152.11 329.69L150.89 329.33L149.63 329.06L148.34 328.9L147.02 328.85L145.7 328.9L144.41 329.06ZM144.41 249.05L143.15 249.31L141.93 249.68L140.76 250.13L139.63 250.68L138.55 251.31L137.52 252.02L136.55 252.81L135.64 253.67L134.8 254.61L134.04 255.6L133.34 256.65L132.73 257.77L132.2 258.93L131.75 260.14L131.4 261.39L131.14 262.68L130.98 264L130.93 265.36L130.98 266.71L131.14 268.04L131.4 269.33L131.75 270.58L132.2 271.79L132.73 272.95L133.34 274.06L134.04 275.12L134.8 276.11L135.64 277.04L136.55 277.91L137.52 278.7L138.55 279.41L139.63 280.04L140.76 280.59L141.93 281.04L143.15 281.4L144.41 281.67L145.7 281.83L147.02 281.88L148.34 281.83L149.63 281.67L150.89 281.4L152.11 281.04L153.28 280.59L154.41 280.04L155.5 279.41L156.52 278.7L157.49 277.91L158.4 277.04L159.24 276.11L160.01 275.12L160.7 274.06L161.31 272.95L161.85 271.79L162.29 270.58L162.64 269.33L162.9 268.04L163.06 266.71L163.11 265.36L163.06 264L162.9 262.68L162.64 261.39L162.29 260.14L161.85 258.93L161.31 257.77L160.7 256.65L160.01 255.6L159.24 254.61L158.4 253.67L157.49 252.81L156.52 252.02L155.5 251.31L154.41 250.68L153.28 250.13L152.11 249.68L150.89 249.31L149.63 249.05L148.34 248.89L147.02 248.83L145.7 248.89L144.41 249.05Z" id="aOdaCkjvm"></path></defs><g><g><g><use xlink:href="#dDcVNMajy" opacity="1" fill="#000000" fill-opacity="1"></use><g><use xlink:href="#dDcVNMajy" opacity="1" fill-opacity="0" stroke="#000000" stroke-width="1" stroke-opacity="0"></use></g></g><g><use xlink:href="#baUL5XyU8" opacity="1" fill="#000000" fill-opacity="1"></use><g><use xlink:href="#baUL5XyU8" opacity="1" fill-opacity="0" stroke="#000000" stroke-width="1" stroke-opacity="0"></use></g></g><g><use xlink:href="#cltsRaWfg" opacity="1" fill="#000000" fill-opacity="1"></use><g><use xlink:href="#cltsRaWfg" opacity="1" fill-opacity="0" stroke="#000000" stroke-width="1" stroke-opacity="0"></use></g></g><g><use xlink:href="#abHcewG4" opacity="1" fill="#000000" fill-opacity="1"></use><g><use xlink:href="#abHcewG4" opacity="1" fill-opacity="0" stroke="#000000" stroke-width="1" stroke-opacity="0"></use></g></g><g><use xlink:href="#aOdaCkjvm" opacity="1" fill="#000000" fill-opacity="1"></use><g><use xlink:href="#aOdaCkjvm" opacity="1" fill-opacity="0" stroke="#000000" stroke-width="1" stroke-opacity="0"></use></g></g></g></g></svg>