<?xml version="1.0" encoding="UTF-8" standalone="no"?>
<!DOCTYPE svg PUBLIC "-//W3C//DTD SVG 1.1//EN" "http://www.w3.org/Graphics/SVG/1.1/DTD/svg11.dtd">
<svg version="1.1" xmlns="http://www.w3.org/2000/svg" xmlns:xlink="http://www.w3.org/1999/xlink" preserveAspectRatio="xMidYMid meet" viewBox="0 0 282 261" width="282" height="261"><defs><path d="M267.7 230.49L268.32 230.55L268.93 230.64L269.54 230.75L270.13 230.88L270.72 231.04L271.3 231.22L271.86 231.42L272.42 231.65L272.96 231.89L273.5 232.15L274.02 232.44L274.53 232.74L275.03 233.06L275.51 233.4L275.98 233.76L276.44 234.14L276.88 234.53L277.3 234.94L277.71 235.36L278.1 235.8L278.48 236.26L278.84 236.73L279.18 237.21L279.5 237.71L279.8 238.22L280.09 238.74L280.35 239.27L280.59 239.82L280.82 240.38L281.02 240.94L281.2 241.52L281.35 242.11L281.49 242.7L281.6 243.31L281.69 243.92L281.75 244.54L281.79 245.16L281.8 245.8L281.79 246.43L281.75 247.06L281.69 247.68L281.6 248.29L281.49 248.89L281.35 249.49L281.2 250.08L281.02 250.65L280.82 251.22L280.59 251.78L280.35 252.32L280.09 252.86L279.8 253.38L279.5 253.89L279.18 254.39L278.84 254.87L278.48 255.34L278.1 255.79L277.71 256.23L277.3 256.66L276.88 257.07L276.44 257.46L275.98 257.84L275.51 258.19L275.03 258.54L274.53 258.86L274.02 259.16L273.5 259.44L272.96 259.71L272.42 259.95L271.86 260.17L271.3 260.38L270.72 260.55L270.13 260.71L269.54 260.85L268.93 260.96L268.32 261.04L267.7 261.11L267.07 261.15L266.44 261.16L15.56 261.16L14.93 261.15L14.3 261.11L13.68 261.04L13.07 260.96L12.46 260.85L11.87 260.71L11.28 260.55L10.7 260.38L10.14 260.17L9.58 259.95L9.04 259.71L8.5 259.44L7.98 259.16L7.47 258.86L6.97 258.54L6.49 258.19L6.02 257.84L5.56 257.46L5.12 257.07L4.7 256.66L4.29 256.23L3.9 255.79L3.52 255.34L3.16 254.87L2.82 254.39L2.5 253.89L2.2 253.38L1.91 252.86L1.65 252.32L1.41 251.78L1.18 251.22L0.98 250.65L0.8 250.08L0.65 249.49L0.51 248.89L0.4 248.29L0.31 247.68L0.25 247.06L0.21 246.43L0.2 245.8L0.21 245.16L0.25 244.54L0.31 243.92L0.4 243.31L0.51 242.7L0.65 242.11L0.8 241.52L0.98 240.94L1.18 240.38L1.41 239.82L1.65 239.27L1.91 238.74L2.2 238.22L2.5 237.71L2.82 237.21L3.16 236.73L3.52 236.26L3.9 235.8L4.29 235.36L4.7 234.94L5.12 234.53L5.56 234.14L6.02 233.76L6.49 233.4L6.97 233.06L7.47 232.74L7.98 232.44L8.5 232.15L9.04 231.89L9.58 231.65L10.14 231.42L10.7 231.22L11.28 231.04L11.87 230.88L12.46 230.75L13.07 230.64L13.68 230.55L14.3 230.49L14.93 230.45L15.56 230.44L266.44 230.44L267.07 230.45L267.7 230.49ZM162.32 0.23L162.73 0.27L163.14 0.33L163.54 0.4L163.94 0.49L164.33 0.6L164.72 0.72L165.09 0.85L165.46 1L165.83 1.16L166.18 1.34L166.53 1.53L166.87 1.73L167.2 1.95L167.53 2.17L167.84 2.41L168.14 2.66L168.44 2.92L168.72 3.2L168.99 3.48L169.25 3.77L169.5 4.08L169.74 4.39L169.97 4.71L170.19 5.04L170.39 5.38L170.58 5.73L170.75 6.09L170.91 6.45L171.06 6.82L171.2 7.2L171.32 7.59L171.42 7.98L171.51 8.37L171.59 8.78L171.64 9.18L171.69 9.6L171.71 10.01L171.72 10.44L171.72 102.93L217.8 102.93L218.1 102.94L218.4 102.95L218.7 102.97L219 103L219.29 103.04L219.58 103.09L219.87 103.15L220.16 103.21L220.44 103.28L220.73 103.36L221.01 103.45L221.28 103.54L221.55 103.65L221.82 103.76L222.09 103.88L222.35 104L222.61 104.14L222.86 104.28L223.11 104.42L223.36 104.58L223.6 104.74L223.84 104.91L224.07 105.08L224.3 105.26L224.52 105.45L224.74 105.64L224.95 105.84L225.15 106.05L225.35 106.26L225.55 106.48L225.74 106.7L225.92 106.93L226.1 107.17L226.27 107.41L226.43 107.66L226.58 107.91L226.73 108.17L226.88 108.43L227.01 108.7L227.14 108.97L227.26 109.25L227.37 109.53L227.47 109.81L227.56 110.09L227.65 110.37L227.73 110.66L227.79 110.95L227.85 111.23L227.91 111.52L227.95 111.81L227.98 112.1L228.01 112.39L228.03 112.69L228.04 112.98L228.04 113.27L228.03 113.56L228.01 113.85L227.99 114.14L227.96 114.43L227.92 114.71L227.87 115L227.82 115.28L227.75 115.57L227.68 115.85L227.6 116.13L227.51 116.41L227.42 116.68L227.31 116.95L227.2 117.22L227.08 117.49L226.96 117.75L226.82 118.02L226.68 118.27L226.53 118.53L226.37 118.78L226.2 119.02L226.03 119.26L225.85 119.5L225.66 119.74L225.46 119.96L148.66 206.67L148.37 206.99L148.05 207.3L147.73 207.58L147.39 207.86L147.05 208.11L146.69 208.35L146.33 208.57L145.95 208.78L145.57 208.97L145.18 209.14L144.78 209.3L144.37 209.44L143.96 209.56L143.55 209.67L143.13 209.76L142.71 209.83L142.28 209.89L141.86 209.93L141.43 209.95L141 209.96L140.57 209.95L140.14 209.93L139.72 209.89L139.29 209.83L138.87 209.76L138.45 209.67L138.04 209.56L137.63 209.44L137.22 209.3L136.82 209.14L136.43 208.97L136.05 208.78L135.67 208.57L135.31 208.35L134.95 208.11L134.61 207.86L134.27 207.58L133.95 207.3L133.63 206.99L133.34 206.67L56.54 119.96L56.34 119.74L56.15 119.5L55.97 119.27L55.8 119.02L55.63 118.78L55.47 118.53L55.32 118.27L55.18 118.02L55.04 117.76L54.92 117.49L54.8 117.23L54.69 116.96L54.58 116.68L54.49 116.41L54.4 116.13L54.32 115.85L54.25 115.57L54.18 115.29L54.13 115L54.08 114.72L54.04 114.43L54.01 114.14L53.99 113.85L53.97 113.56L53.96 113.27L53.96 112.98L53.97 112.69L53.99 112.4L54.02 112.11L54.05 111.82L54.09 111.53L54.15 111.24L54.21 110.95L54.27 110.66L54.35 110.38L54.44 110.09L54.53 109.81L54.63 109.53L54.74 109.25L54.86 108.97L54.99 108.7L55.12 108.43L55.27 108.17L55.42 107.91L55.57 107.66L55.73 107.41L55.9 107.17L56.08 106.93L56.26 106.7L56.45 106.48L56.65 106.26L56.85 106.05L57.05 105.84L57.26 105.64L57.48 105.45L57.7 105.26L57.93 105.08L58.16 104.9L58.4 104.74L58.64 104.58L58.89 104.42L59.14 104.27L59.39 104.13L59.65 104L59.91 103.88L60.18 103.76L60.45 103.65L60.72 103.54L60.99 103.45L61.27 103.36L61.56 103.28L61.84 103.21L62.13 103.14L62.42 103.09L62.71 103.04L63 103L63.3 102.97L63.6 102.95L63.9 102.93L64.2 102.93L110.28 102.93L110.28 10.44L110.29 10.01L110.31 9.6L110.36 9.18L110.41 8.78L110.49 8.37L110.58 7.98L110.68 7.59L110.8 7.2L110.94 6.82L111.09 6.45L111.25 6.09L111.42 5.73L111.61 5.38L111.81 5.04L112.03 4.71L112.26 4.39L112.5 4.08L112.75 3.77L113.01 3.48L113.28 3.2L113.56 2.92L113.86 2.66L114.16 2.41L114.47 2.17L114.8 1.95L115.13 1.73L115.47 1.53L115.82 1.34L116.17 1.16L116.54 1L116.91 0.85L117.28 0.72L117.67 0.6L118.06 0.49L118.46 0.4L118.86 0.33L119.27 0.27L119.68 0.23L120.1 0.21L120.52 0.2L161.48 0.2L161.9 0.21L162.32 0.23Z" id="ag8B36QEA"></path><path d="M121.73 109.8L123.02 110.15L124.26 110.64L125.42 111.24L126.52 111.96L127.53 112.78L128.45 113.71L129.28 114.72L130 115.81L130.6 116.98L131.09 118.21L131.44 119.51L131.66 120.85L131.73 122.24L131.66 123.63L131.44 124.97L131.27 125.59L142.54 134.21L161.85 119.54L162.46 119.13L163.06 118.76L163.65 118.45L164.23 118.18L164.8 117.96L165.35 117.78L165.9 117.64L166.44 117.53L166.96 117.47L167.47 117.43L167.97 117.43L168.46 117.46L168.94 117.51L169.4 117.6L169.84 117.7L170.28 117.83L170.7 117.97L171.1 118.13L171.49 118.31L171.87 118.5L172.23 118.7L172.57 118.92L172.9 119.13L173.21 119.35L173.51 119.58L173.79 119.8L174.05 120.03L174.29 120.25L174.52 120.46L174.73 120.67L174.92 120.87L175.09 121.05L175.24 121.22L175.37 121.38L175.48 121.52L175.58 121.63L175.65 121.73L175.7 121.8L175.73 121.84L175.75 121.86L151.04 140.39L175.75 158.92L175.39 159.36L175.03 159.77L174.67 160.15L174.3 160.48L173.92 160.79L173.54 161.07L173.15 161.31L172.76 161.53L172.37 161.72L171.98 161.89L171.59 162.03L171.2 162.14L170.81 162.24L170.43 162.31L170.04 162.37L169.67 162.4L169.29 162.42L168.93 162.43L168.57 162.42L168.22 162.39L167.87 162.36L167.54 162.31L167.22 162.26L166.91 162.2L166.61 162.13L166.32 162.06L166.05 161.98L165.79 161.9L165.55 161.82L165.32 161.74L165.11 161.66L164.92 161.59L164.75 161.52L164.6 161.45L164.47 161.39L164.36 161.34L164.28 161.29L164.21 161.26L164.18 161.24L164.16 161.24L142.54 145.79L131.16 154.01L131.44 155.03L131.66 156.37L131.73 157.76L131.66 159.15L131.44 160.49L131.09 161.79L130.6 163.02L130 164.19L129.28 165.29L128.45 166.3L127.53 167.22L126.52 168.04L125.42 168.76L124.26 169.37L123.02 169.85L121.73 170.21L120.38 170.43L118.99 170.5L117.61 170.43L116.26 170.21L114.97 169.85L113.73 169.37L112.56 168.76L111.47 168.04L110.46 167.22L109.54 166.3L108.71 165.29L107.99 164.19L107.39 163.02L106.9 161.79L106.55 160.49L106.33 159.15L106.25 157.76L106.33 156.37L106.55 155.03L106.9 153.73L107.39 152.5L107.99 151.33L108.71 150.24L109.54 149.22L110.46 148.3L111.47 147.48L112.56 146.76L113.73 146.15L114.97 145.67L116.26 145.31L117.61 145.09L118.99 145.02L120.38 145.09L121.73 145.31L123.02 145.67L124.26 146.15L125.42 146.76L126.13 147.22L134.82 140.39L125.59 133.13L125.42 133.24L124.26 133.85L123.02 134.33L121.73 134.69L120.38 134.91L118.99 134.98L117.61 134.91L116.26 134.69L114.97 134.33L113.73 133.85L112.56 133.24L111.47 132.52L110.46 131.7L109.54 130.78L108.71 129.77L107.99 128.67L107.39 127.5L106.9 126.27L106.55 124.97L106.33 123.63L106.25 122.24L106.33 120.85L106.55 119.51L106.9 118.21L107.39 116.98L107.99 115.81L108.71 114.72L109.54 113.71L110.46 112.78L111.47 111.96L112.56 111.24L113.73 110.64L114.97 110.15L116.26 109.8L117.61 109.58L118.99 109.5L120.38 109.58L121.73 109.8ZM116.44 150.88L115.29 151.43L114.27 152.15L113.38 153.03L112.66 154.06L112.12 155.2L111.78 156.44L111.66 157.76L111.78 159.08L112.12 160.32L112.66 161.46L113.38 162.49L114.27 163.37L115.29 164.09L116.44 164.64L117.68 164.98L118.99 165.1L120.31 164.98L121.55 164.64L122.7 164.09L123.72 163.37L124.6 162.49L125.33 161.46L125.87 160.32L126.21 159.08L126.33 157.76L126.21 156.44L125.87 155.2L125.33 154.06L124.6 153.03L123.72 152.15L122.7 151.43L121.55 150.88L120.31 150.54L118.99 150.43L117.68 150.54L116.44 150.88ZM116.44 115.37L115.29 115.91L114.27 116.63L113.38 117.52L112.66 118.54L112.12 119.68L111.78 120.92L111.66 122.24L111.78 123.56L112.12 124.8L112.66 125.94L113.38 126.97L114.27 127.85L115.29 128.58L116.44 129.12L117.68 129.46L118.99 129.58L120.31 129.46L121.55 129.12L122.7 128.58L123.72 127.85L124.6 126.97L125.33 125.94L125.87 124.8L126.21 123.56L126.33 122.24L126.21 120.92L125.87 119.68L125.33 118.54L124.6 117.52L123.72 116.63L122.7 115.91L121.55 115.37L120.31 115.02L118.99 114.91L117.68 115.02L116.44 115.37Z" id="c50Zc64XcY"></path><path d="M121.24 109.76L122.48 110.08L123.67 110.52L124.81 111.06L125.87 111.71L126.87 112.46L127.79 113.29L128.63 114.21L129.37 115.21L130.02 116.28L130.57 117.41L131 118.6L131.32 119.84L131.52 121.13L131.58 122.45L131.52 123.77L131.32 125.06L131.12 125.86L142.57 134.62L162.19 119.7L162.81 119.28L163.42 118.92L164.02 118.6L164.61 118.32L165.19 118.1L165.75 117.91L166.31 117.77L166.85 117.66L167.39 117.6L167.91 117.56L168.42 117.56L168.91 117.59L169.39 117.65L169.86 117.73L170.32 117.83L170.76 117.96L171.18 118.11L171.6 118.28L171.99 118.46L172.37 118.65L172.74 118.86L173.09 119.07L173.42 119.29L173.74 119.52L174.04 119.75L174.32 119.97L174.59 120.2L174.84 120.43L175.07 120.64L175.28 120.85L175.47 121.05L175.64 121.24L175.8 121.42L175.93 121.57L176.05 121.71L176.14 121.83L176.22 121.93L176.27 122L176.3 122.04L176.31 122.06L151.2 140.89L176.31 159.73L175.96 160.18L175.59 160.6L175.22 160.98L174.84 161.32L174.46 161.63L174.07 161.91L173.68 162.16L173.28 162.39L172.89 162.58L172.49 162.75L172.09 162.89L171.7 163.01L171.3 163.1L170.91 163.18L170.52 163.23L170.14 163.27L169.76 163.29L169.39 163.3L169.02 163.28L168.66 163.26L168.31 163.23L167.98 163.18L167.65 163.13L167.33 163.06L167.03 162.99L166.73 162.92L166.46 162.84L166.2 162.76L165.95 162.68L165.72 162.6L165.51 162.52L165.32 162.44L165.14 162.37L164.99 162.3L164.86 162.24L164.75 162.19L164.66 162.14L164.59 162.11L164.56 162.09L164.54 162.08L142.57 146.39L131.01 154.74L131.32 155.94L131.52 157.23L131.58 158.55L131.52 159.88L131.32 161.16L131 162.4L130.57 163.59L130.02 164.73L129.37 165.79L128.63 166.79L127.79 167.71L126.87 168.55L125.87 169.29L124.81 169.94L123.67 170.48L122.48 170.92L121.24 171.24L119.96 171.44L118.63 171.5L117.31 171.44L116.02 171.24L114.78 170.92L113.59 170.48L112.46 169.94L111.39 169.29L110.4 168.55L109.48 167.71L108.64 166.79L107.9 165.79L107.25 164.73L106.7 163.59L106.27 162.4L105.95 161.16L105.75 159.88L105.69 158.55L105.75 157.23L105.95 155.94L106.27 154.7L106.7 153.51L107.25 152.38L107.9 151.31L108.64 150.32L109.48 149.4L110.4 148.56L111.39 147.81L112.46 147.17L113.59 146.62L114.78 146.19L116.02 145.87L117.31 145.67L118.63 145.6L119.96 145.67L121.24 145.87L122.48 146.19L123.67 146.62L124.81 147.17L125.87 147.81L125.9 147.83L134.72 140.89L125.33 133.52L124.81 133.84L123.67 134.38L122.48 134.82L121.24 135.14L119.96 135.33L118.63 135.4L117.31 135.33L116.02 135.14L114.78 134.82L113.59 134.38L112.46 133.84L111.39 133.19L110.4 132.44L109.48 131.61L108.64 130.69L107.9 129.69L107.25 128.62L106.7 127.49L106.27 126.3L105.95 125.06L105.75 123.77L105.69 122.45L105.75 121.13L105.95 119.84L106.27 118.6L106.7 117.41L107.25 116.28L107.9 115.21L108.64 114.21L109.48 113.29L110.4 112.46L111.39 111.71L112.46 111.06L113.59 110.52L114.78 110.08L116.02 109.76L117.31 109.57L118.63 109.5L119.96 109.57L121.24 109.76ZM116.03 151.56L114.87 152.11L113.83 152.85L112.93 153.75L112.2 154.79L111.65 155.95L111.3 157.21L111.18 158.55L111.3 159.89L111.65 161.15L112.2 162.32L112.93 163.36L113.83 164.25L114.87 164.99L116.03 165.54L117.29 165.89L118.63 166.01L119.97 165.89L121.24 165.54L122.4 164.99L123.44 164.25L124.34 163.36L125.07 162.32L125.62 161.15L125.97 159.89L126.09 158.55L125.97 157.21L125.62 155.95L125.07 154.79L124.34 153.75L123.44 152.85L122.4 152.11L121.24 151.56L119.97 151.22L118.63 151.1L117.29 151.22L116.03 151.56ZM116.03 115.46L114.87 116.01L113.83 116.75L112.93 117.65L112.2 118.69L111.65 119.85L111.3 121.11L111.18 122.45L111.3 123.79L111.65 125.05L112.2 126.21L112.93 127.25L113.83 128.15L114.87 128.89L116.03 129.44L117.29 129.79L118.63 129.91L119.97 129.79L121.24 129.44L122.4 128.89L123.44 128.15L124.34 127.25L125.07 126.21L125.62 125.05L125.97 123.79L126.09 122.45L125.97 121.11L125.62 119.85L125.07 118.69L124.34 117.65L123.44 116.75L122.4 116.01L121.24 115.46L119.97 115.12L118.63 114.99L117.29 115.12L116.03 115.46Z" id="f1KeDKApdr"></path></defs><g><g><g><use xlink:href="#ag8B36QEA" opacity="1" fill="#000000" fill-opacity="1"></use><g><use xlink:href="#ag8B36QEA" opacity="1" fill-opacity="0" stroke="#000000" stroke-width="1" stroke-opacity="0"></use></g></g><g><g><use xlink:href="#c50Zc64XcY" opacity="1" fill-opacity="0" stroke="#000000" stroke-width="1" stroke-opacity="0"></use></g></g><g><use xlink:href="#f1KeDKApdr" opacity="1" fill="#ffffff" fill-opacity="1"></use><g><use xlink:href="#f1KeDKApdr" opacity="1" fill-opacity="0" stroke="#000000" stroke-width="1" stroke-opacity="0"></use></g></g></g></g></svg>