<?xml version="1.0" encoding="UTF-8" standalone="no"?>
<!DOCTYPE svg PUBLIC "-//W3C//DTD SVG 1.1//EN" "http://www.w3.org/Graphics/SVG/1.1/DTD/svg11.dtd">
<svg version="1.1" xmlns="http://www.w3.org/2000/svg" xmlns:xlink="http://www.w3.org/1999/xlink" preserveAspectRatio="xMidYMid meet" viewBox="0 0 279 640" width="279" height="640"><defs><path d="M217.74 551.47C222.25 535.4 223.76 449.08 222.27 292.51C189.76 245.06 171.69 218.7 168.08 213.43C118.26 242.83 53.82 228.94 20.23 179.91C-15.23 128.14 -2.86 56.85 47.87 20.65C98.6 -15.53 168.48 -2.92 203.96 48.85C228.31 84.37 230.1 129.1 212.44 165.36C256.69 229.93 277.49 260.29 274.85 256.44C277.43 260.2 278.81 264.66 278.8 269.22C278.74 318.41 278.59 441.38 278.35 638.12C233.44 596.43 213.24 567.54 217.74 551.47ZM112.38 55.35C80.29 55.32 54.26 81.85 54.24 114.59C54.21 147.34 80.21 173.9 112.3 173.92C144.39 173.94 170.43 147.42 170.45 114.67C170.47 81.93 144.48 55.37 112.38 55.35ZM445.53 55.58C413.44 55.56 387.4 82.08 387.38 114.83C387.36 147.57 413.36 174.13 445.45 174.15C477.54 174.18 503.57 147.66 503.59 114.91C503.62 82.16 477.62 55.6 445.53 55.58Z" id="alZFdmRR"></path></defs><g><g><g><use xlink:href="#alZFdmRR" opacity="1" fill="#000000" fill-opacity="1"></use><g><use xlink:href="#alZFdmRR" opacity="1" fill-opacity="0" stroke="#000000" stroke-width="1" stroke-opacity="0"></use></g></g></g></g></svg>