<?xml version="1.0" encoding="UTF-8" standalone="no"?>
<!DOCTYPE svg PUBLIC "-//W3C//DTD SVG 1.1//EN" "http://www.w3.org/Graphics/SVG/1.1/DTD/svg11.dtd">
<svg version="1.1" xmlns="http://www.w3.org/2000/svg" xmlns:xlink="http://www.w3.org/1999/xlink" preserveAspectRatio="xMidYMid meet" viewBox="0 0 279 640" width="279" height="640"><defs><path d="M61.26 553.35C56.75 537.28 55.24 450.96 56.73 294.39C89.25 246.94 107.31 220.58 110.92 215.31C160.74 244.71 225.18 230.82 258.77 181.79C294.23 130.02 281.86 58.73 231.13 22.53C180.4 -13.65 110.52 -1.04 75.04 50.73C50.7 86.25 48.9 130.98 66.56 167.24C22.31 231.81 1.51 262.17 4.15 258.32C1.57 262.08 0.19 266.54 0.2 271.1C0.26 320.29 0.41 443.26 0.65 640C45.56 598.31 65.76 569.42 61.26 553.35ZM166.62 57.23C198.71 57.2 224.74 83.73 224.76 116.47C224.79 149.22 198.79 175.78 166.7 175.8C134.61 175.82 108.57 149.3 108.55 116.55C108.53 83.81 134.53 57.25 166.62 57.23ZM-166.53 57.46C-134.44 57.44 -108.4 83.96 -108.38 116.71C-108.36 149.45 -134.35 176.01 -166.45 176.03C-198.53 176.06 -224.57 149.54 -224.59 116.79C-224.62 84.04 -198.62 57.48 -166.53 57.46Z" id="jayY6vEQI"></path></defs><g><g><g><use xlink:href="#jayY6vEQI" opacity="1" fill="#000000" fill-opacity="1"></use><g><use xlink:href="#jayY6vEQI" opacity="1" fill-opacity="0" stroke="#000000" stroke-width="1" stroke-opacity="0"></use></g></g></g></g></svg>