<?xml version="1.0" encoding="UTF-8" standalone="no"?>
<!DOCTYPE svg PUBLIC "-//W3C//DTD SVG 1.1//EN" "http://www.w3.org/Graphics/SVG/1.1/DTD/svg11.dtd">
<svg version="1.1" xmlns="http://www.w3.org/2000/svg" xmlns:xlink="http://www.w3.org/1999/xlink" preserveAspectRatio="xMidYMid meet" viewBox="0 0 282 261" width="282" height="261"><defs><path d="M267.7 230.49L268.32 230.55L268.93 230.64L269.54 230.75L270.13 230.88L270.72 231.04L271.3 231.22L271.86 231.42L272.42 231.65L272.96 231.89L273.5 232.15L274.02 232.44L274.53 232.74L275.03 233.06L275.51 233.4L275.98 233.76L276.44 234.14L276.88 234.53L277.3 234.94L277.71 235.36L278.1 235.8L278.48 236.26L278.84 236.73L279.18 237.21L279.5 237.71L279.8 238.22L280.09 238.74L280.35 239.27L280.59 239.82L280.82 240.38L281.02 240.94L281.2 241.52L281.35 242.11L281.49 242.7L281.6 243.31L281.69 243.92L281.75 244.54L281.79 245.16L281.8 245.8L281.79 246.43L281.75 247.06L281.69 247.68L281.6 248.29L281.49 248.89L281.35 249.49L281.2 250.08L281.02 250.65L280.82 251.22L280.59 251.78L280.35 252.32L280.09 252.86L279.8 253.38L279.5 253.89L279.18 254.39L278.84 254.87L278.48 255.34L278.1 255.79L277.71 256.23L277.3 256.66L276.88 257.07L276.44 257.46L275.98 257.84L275.51 258.19L275.03 258.54L274.53 258.86L274.02 259.16L273.5 259.44L272.96 259.71L272.42 259.95L271.86 260.17L271.3 260.38L270.72 260.55L270.13 260.71L269.54 260.85L268.93 260.96L268.32 261.04L267.7 261.11L267.07 261.15L266.44 261.16L15.56 261.16L14.93 261.15L14.3 261.11L13.68 261.04L13.07 260.96L12.46 260.85L11.87 260.71L11.28 260.55L10.7 260.38L10.14 260.17L9.58 259.95L9.04 259.71L8.5 259.44L7.98 259.16L7.47 258.86L6.97 258.54L6.49 258.19L6.02 257.84L5.56 257.46L5.12 257.07L4.7 256.66L4.29 256.23L3.9 255.79L3.52 255.34L3.16 254.87L2.82 254.39L2.5 253.89L2.2 253.38L1.91 252.86L1.65 252.32L1.41 251.78L1.18 251.22L0.98 250.65L0.8 250.08L0.65 249.49L0.51 248.89L0.4 248.29L0.31 247.68L0.25 247.06L0.21 246.43L0.2 245.8L0.21 245.16L0.25 244.54L0.31 243.92L0.4 243.31L0.51 242.7L0.65 242.11L0.8 241.52L0.98 240.94L1.18 240.38L1.41 239.82L1.65 239.27L1.91 238.74L2.2 238.22L2.5 237.71L2.82 237.21L3.16 236.73L3.52 236.26L3.9 235.8L4.29 235.36L4.7 234.94L5.12 234.53L5.56 234.14L6.02 233.76L6.49 233.4L6.97 233.06L7.47 232.74L7.98 232.44L8.5 232.15L9.04 231.89L9.58 231.65L10.14 231.42L10.7 231.22L11.28 231.04L11.87 230.88L12.46 230.75L13.07 230.64L13.68 230.55L14.3 230.49L14.93 230.45L15.56 230.44L266.44 230.44L267.07 230.45L267.7 230.49ZM162.32 0.23L162.73 0.27L163.14 0.33L163.54 0.4L163.94 0.49L164.33 0.6L164.72 0.72L165.09 0.85L165.46 1L165.83 1.16L166.18 1.34L166.53 1.53L166.87 1.73L167.2 1.95L167.53 2.17L167.84 2.41L168.14 2.66L168.44 2.92L168.72 3.2L168.99 3.48L169.25 3.77L169.5 4.08L169.74 4.39L169.97 4.71L170.19 5.04L170.39 5.38L170.58 5.73L170.75 6.09L170.91 6.45L171.06 6.82L171.2 7.2L171.32 7.59L171.42 7.98L171.51 8.37L171.59 8.78L171.64 9.18L171.69 9.6L171.71 10.01L171.72 10.44L171.72 102.93L217.8 102.93L218.1 102.94L218.4 102.95L218.7 102.97L219 103L219.29 103.04L219.58 103.09L219.87 103.15L220.16 103.21L220.44 103.28L220.73 103.36L221.01 103.45L221.28 103.54L221.55 103.65L221.82 103.76L222.09 103.88L222.35 104L222.61 104.14L222.86 104.28L223.11 104.42L223.36 104.58L223.6 104.74L223.84 104.91L224.07 105.08L224.3 105.26L224.52 105.45L224.74 105.64L224.95 105.84L225.15 106.05L225.35 106.26L225.55 106.48L225.74 106.7L225.92 106.93L226.1 107.17L226.27 107.41L226.43 107.66L226.58 107.91L226.73 108.17L226.88 108.43L227.01 108.7L227.14 108.97L227.26 109.25L227.37 109.53L227.47 109.81L227.56 110.09L227.65 110.37L227.73 110.66L227.79 110.95L227.85 111.23L227.91 111.52L227.95 111.81L227.98 112.1L228.01 112.39L228.03 112.69L228.04 112.98L228.04 113.27L228.03 113.56L228.01 113.85L227.99 114.14L227.96 114.43L227.92 114.71L227.87 115L227.82 115.28L227.75 115.57L227.68 115.85L227.6 116.13L227.51 116.41L227.42 116.68L227.31 116.95L227.2 117.22L227.08 117.49L226.96 117.75L226.82 118.02L226.68 118.27L226.53 118.53L226.37 118.78L226.2 119.02L226.03 119.26L225.85 119.5L225.66 119.74L225.46 119.96L148.66 206.67L148.37 206.99L148.05 207.3L147.73 207.58L147.39 207.86L147.05 208.11L146.69 208.35L146.33 208.57L145.95 208.78L145.57 208.97L145.18 209.14L144.78 209.3L144.37 209.44L143.96 209.56L143.55 209.67L143.13 209.76L142.71 209.83L142.28 209.89L141.86 209.93L141.43 209.95L141 209.96L140.57 209.95L140.14 209.93L139.72 209.89L139.29 209.83L138.87 209.76L138.45 209.67L138.04 209.56L137.63 209.44L137.22 209.3L136.82 209.14L136.43 208.97L136.05 208.78L135.67 208.57L135.31 208.35L134.95 208.11L134.61 207.86L134.27 207.58L133.95 207.3L133.63 206.99L133.34 206.67L56.54 119.96L56.34 119.74L56.15 119.5L55.97 119.27L55.8 119.02L55.63 118.78L55.47 118.53L55.32 118.27L55.18 118.02L55.04 117.76L54.92 117.49L54.8 117.23L54.69 116.96L54.58 116.68L54.49 116.41L54.4 116.13L54.32 115.85L54.25 115.57L54.18 115.29L54.13 115L54.08 114.72L54.04 114.43L54.01 114.14L53.99 113.85L53.97 113.56L53.96 113.27L53.96 112.98L53.97 112.69L53.99 112.4L54.02 112.11L54.05 111.82L54.09 111.53L54.15 111.24L54.21 110.95L54.27 110.66L54.35 110.38L54.44 110.09L54.53 109.81L54.63 109.53L54.74 109.25L54.86 108.97L54.99 108.7L55.12 108.43L55.27 108.17L55.42 107.91L55.57 107.66L55.73 107.41L55.9 107.17L56.08 106.93L56.26 106.7L56.45 106.48L56.65 106.26L56.85 106.05L57.05 105.84L57.26 105.64L57.48 105.45L57.7 105.26L57.93 105.08L58.16 104.9L58.4 104.74L58.64 104.58L58.89 104.42L59.14 104.27L59.39 104.13L59.65 104L59.91 103.88L60.18 103.76L60.45 103.65L60.72 103.54L60.99 103.45L61.27 103.36L61.56 103.28L61.84 103.21L62.13 103.14L62.42 103.09L62.71 103.04L63 103L63.3 102.97L63.6 102.95L63.9 102.93L64.2 102.93L110.28 102.93L110.28 10.44L110.29 10.01L110.31 9.6L110.36 9.18L110.41 8.78L110.49 8.37L110.58 7.98L110.68 7.59L110.8 7.2L110.94 6.82L111.09 6.45L111.25 6.09L111.42 5.73L111.61 5.38L111.81 5.04L112.03 4.71L112.26 4.39L112.5 4.08L112.75 3.77L113.01 3.48L113.28 3.2L113.56 2.92L113.86 2.66L114.16 2.41L114.47 2.17L114.8 1.95L115.13 1.73L115.47 1.53L115.82 1.34L116.17 1.16L116.54 1L116.91 0.85L117.28 0.72L117.67 0.6L118.06 0.49L118.46 0.4L118.86 0.33L119.27 0.27L119.68 0.23L120.1 0.21L120.52 0.2L161.48 0.2L161.9 0.21L162.32 0.23Z" id="b4xgm23JH"></path></defs><g><g><g><use xlink:href="#b4xgm23JH" opacity="1" fill="#000000" fill-opacity="1"></use><g><use xlink:href="#b4xgm23JH" opacity="1" fill-opacity="0" stroke="#000000" stroke-width="1" stroke-opacity="0"></use></g></g></g></g></svg>