<?xml version="1.0" encoding="UTF-8" standalone="no"?>
<!DOCTYPE svg PUBLIC "-//W3C//DTD SVG 1.1//EN" "http://www.w3.org/Graphics/SVG/1.1/DTD/svg11.dtd">
<svg version="1.1" xmlns="http://www.w3.org/2000/svg" xmlns:xlink="http://www.w3.org/1999/xlink" preserveAspectRatio="xMidYMid meet" viewBox="0 0 160 145" width="160" height="145"><defs><path d="M32 3.15L33.31 3.3L34.61 3.5L35.88 3.76L37.13 4.08L38.36 4.45L39.57 4.87L40.75 5.34L41.91 5.85L43.04 6.42L44.14 7.04L45.21 7.69L46.25 8.4L47.26 9.14L48.23 9.93L49.17 10.76L50.07 11.62L50.94 12.52L51.77 13.46L52.55 14.44L53.3 15.45L54 16.49L54.66 17.56L55.28 18.66L55.84 19.79L56.36 20.95L56.83 22.13L57.25 23.34L57.62 24.57L57.93 25.82L58.19 27.09L58.4 28.38L58.55 29.69L58.64 31.02L58.67 32.36L58.64 33.71L58.55 35.03L58.4 36.34L58.19 37.64L57.93 38.91L57.64 40.1L83.56 59.92L128 26.14L129.4 25.19L130.79 24.36L132.14 23.63L133.48 23.02L134.79 22.5L136.08 22.08L137.34 21.76L138.57 21.52L139.78 21.37L140.96 21.29L142.11 21.29L143.23 21.35L144.32 21.48L145.38 21.67L146.41 21.91L147.41 22.2L148.38 22.53L149.31 22.91L150.21 23.32L151.07 23.76L151.9 24.22L152.69 24.7L153.45 25.21L154.17 25.72L154.85 26.23L155.49 26.75L156.09 27.27L156.65 27.78L157.17 28.27L157.65 28.75L158.09 29.2L158.48 29.63L158.83 30.02L159.14 30.38L159.4 30.69L159.61 30.96L159.78 31.18L159.9 31.34L159.98 31.44L160 31.47L103.11 74.14L160 116.81L159.19 117.83L158.36 118.77L157.52 119.63L156.66 120.41L155.79 121.12L154.91 121.76L154.02 122.32L153.13 122.82L152.23 123.26L151.33 123.64L150.43 123.96L149.54 124.23L148.64 124.45L147.75 124.62L146.88 124.75L146.01 124.83L145.15 124.87L144.3 124.88L143.48 124.86L142.67 124.81L141.88 124.73L141.11 124.63L140.37 124.5L139.65 124.36L138.96 124.2L138.3 124.04L137.67 123.86L137.08 123.68L136.52 123.49L136 123.31L135.52 123.13L135.08 122.95L134.69 122.79L134.34 122.63L134.04 122.5L133.79 122.38L133.59 122.28L133.45 122.2L133.36 122.16L133.33 122.14L83.56 86.59L57.37 105.5L57.62 106.34L57.93 107.6L58.19 108.87L58.4 110.16L58.55 111.47L58.64 112.8L58.67 114.14L58.64 115.48L58.55 116.81L58.4 118.12L58.19 119.41L57.93 120.69L57.62 121.94L57.25 123.17L56.83 124.38L56.36 125.56L55.84 126.72L55.28 127.85L54.66 128.95L54 130.02L53.3 131.06L52.55 132.07L51.77 133.04L50.94 133.98L50.07 134.88L49.17 135.75L48.23 136.58L47.26 137.36L46.25 138.11L45.21 138.81L44.14 139.47L43.04 140.08L41.91 140.65L40.75 141.17L39.57 141.64L38.36 142.06L37.13 142.43L35.88 142.74L34.61 143L33.31 143.21L32 143.35L30.68 143.44L29.33 143.47L27.99 143.44L26.66 143.35L25.35 143.21L24.06 143L22.79 142.74L21.54 142.43L20.31 142.06L19.1 141.64L17.92 141.17L16.76 140.65L15.63 140.08L14.53 139.47L13.46 138.81L12.42 138.11L11.41 137.36L10.43 136.58L9.5 135.75L8.59 134.88L7.73 133.98L6.9 133.04L6.11 132.07L5.37 131.06L4.66 130.02L4.01 128.95L3.39 127.85L2.82 126.72L2.31 125.56L1.84 124.38L1.42 123.17L1.05 121.94L0.73 120.69L0.47 119.41L0.27 118.12L0.12 116.81L0.03 115.48L0 114.14L0.03 112.8L0.12 111.47L0.27 110.16L0.47 108.87L0.73 107.6L1.05 106.34L1.42 105.11L1.84 103.91L2.31 102.72L2.82 101.57L3.39 100.44L4.01 99.34L4.66 98.26L5.37 97.22L6.11 96.22L6.9 95.24L7.73 94.3L8.59 93.4L9.5 92.53L10.43 91.71L11.41 90.92L12.42 90.17L13.46 89.47L14.53 88.81L15.63 88.2L16.76 87.63L17.92 87.11L19.1 86.64L20.31 86.22L21.54 85.86L22.79 85.54L24.06 85.28L25.35 85.08L26.66 84.93L27.99 84.84L29.33 84.81L30.68 84.84L32 84.93L33.31 85.08L34.61 85.28L35.88 85.54L37.13 85.86L38.36 86.22L39.57 86.64L40.75 87.11L41.91 87.63L43.04 88.2L44.14 88.81L45.21 89.47L45.78 89.86L65.78 74.14L44.53 57.45L44.14 57.69L43.04 58.31L41.91 58.87L40.75 59.39L39.57 59.86L38.36 60.28L37.13 60.65L35.88 60.96L34.61 61.22L33.31 61.43L32 61.58L30.68 61.67L29.33 61.7L27.99 61.67L26.66 61.58L25.35 61.43L24.06 61.22L22.79 60.96L21.54 60.65L20.31 60.28L19.1 59.86L17.92 59.39L16.76 58.87L15.63 58.31L14.53 57.69L13.46 57.03L12.42 56.33L11.41 55.59L10.43 54.8L9.5 53.97L8.59 53.11L7.73 52.2L6.9 51.26L6.11 50.29L5.37 49.28L4.66 48.24L4.01 47.17L3.39 46.07L2.82 44.94L2.31 43.78L1.84 42.6L1.42 41.39L1.05 40.16L0.73 38.91L0.47 37.64L0.27 36.34L0.12 35.03L0.03 33.71L0 32.36L0.03 31.02L0.12 29.69L0.27 28.38L0.47 27.09L0.73 25.82L1.05 24.57L1.42 23.34L1.84 22.13L2.31 20.95L2.82 19.79L3.39 18.66L4.01 17.56L4.66 16.49L5.37 15.45L6.11 14.44L6.9 13.46L7.73 12.52L8.59 11.62L9.5 10.76L10.43 9.93L11.41 9.14L12.42 8.4L13.46 7.69L14.53 7.04L15.63 6.42L16.76 5.85L17.92 5.34L19.1 4.87L20.31 4.45L21.54 4.08L22.79 3.76L24.06 3.5L25.35 3.3L26.66 3.15L27.99 3.06L29.33 3.03L30.68 3.06L32 3.15ZM26.72 97.45L25.46 97.7L24.24 98.04L23.05 98.46L21.91 98.97L20.81 99.56L19.76 100.22L18.77 100.96L17.84 101.77L16.96 102.64L16.15 103.58L15.42 104.57L14.75 105.62L14.16 106.71L13.65 107.86L13.23 109.04L12.89 110.27L12.65 111.53L12.5 112.82L12.44 114.14L12.5 115.46L12.65 116.75L12.89 118.01L13.23 119.24L13.65 120.42L14.16 121.57L14.75 122.67L15.42 123.71L16.15 124.7L16.96 125.64L17.84 126.51L18.77 127.32L19.76 128.06L20.81 128.72L21.91 129.31L23.05 129.82L24.24 130.25L25.46 130.58L26.72 130.83L28.01 130.98L29.33 131.03L30.65 130.98L31.95 130.83L33.21 130.58L34.43 130.25L35.62 129.82L36.76 129.31L37.86 128.72L38.9 128.06L39.9 127.32L40.83 126.51L41.7 125.64L42.51 124.7L43.25 123.71L43.92 122.67L44.51 121.57L45.01 120.42L45.44 119.24L45.78 118.01L46.02 116.75L46.17 115.46L46.22 114.14L46.17 112.82L46.02 111.53L45.78 110.27L45.44 109.04L45.01 107.86L44.51 106.71L43.92 105.62L43.25 104.57L42.51 103.58L41.7 102.64L40.83 101.77L39.9 100.96L38.9 100.22L37.86 99.56L36.76 98.97L35.62 98.46L34.43 98.04L33.21 97.7L31.95 97.45L30.65 97.3L29.33 97.25L28.01 97.3L26.72 97.45ZM26.72 15.68L25.46 15.92L24.24 16.26L23.05 16.68L21.91 17.19L20.81 17.78L19.76 18.45L18.77 19.18L17.84 19.99L16.96 20.87L16.15 21.8L15.42 22.79L14.75 23.84L14.16 24.94L13.65 26.08L13.23 27.27L12.89 28.49L12.65 29.75L12.5 31.04L12.44 32.36L12.5 33.68L12.65 34.98L12.89 36.24L13.23 37.46L13.65 38.65L14.16 39.79L14.75 40.89L15.42 41.93L16.15 42.93L16.96 43.86L17.84 44.73L18.77 45.54L19.76 46.28L20.81 46.95L21.91 47.54L23.05 48.04L24.24 48.47L25.46 48.81L26.72 49.05L28.01 49.2L29.33 49.25L30.65 49.2L31.95 49.05L33.21 48.81L34.43 48.47L35.62 48.04L36.76 47.54L37.86 46.95L38.9 46.28L39.9 45.54L40.83 44.73L41.7 43.86L42.51 42.93L43.25 41.93L43.92 40.89L44.51 39.79L45.01 38.65L45.44 37.46L45.78 36.24L46.02 34.98L46.17 33.68L46.22 32.36L46.17 31.04L46.02 29.75L45.78 28.49L45.44 27.27L45.01 26.08L44.51 24.94L43.92 23.84L43.25 22.79L42.51 21.8L41.7 20.87L40.83 19.99L39.9 19.18L38.9 18.45L37.86 17.78L36.76 17.19L35.62 16.68L34.43 16.26L33.21 15.92L31.95 15.68L30.65 15.53L29.33 15.47L28.01 15.53L26.72 15.68Z" id="a7bjRsYhH"></path></defs><g><g><g><use xlink:href="#a7bjRsYhH" opacity="1" fill="#000000" fill-opacity="1"></use><g><use xlink:href="#a7bjRsYhH" opacity="1" fill-opacity="0" stroke="#000000" stroke-width="1" stroke-opacity="0"></use></g></g></g></g></svg>