<?xml version="1.0" encoding="UTF-8" standalone="no"?>
<!DOCTYPE svg PUBLIC "-//W3C//DTD SVG 1.1//EN" "http://www.w3.org/Graphics/SVG/1.1/DTD/svg11.dtd">
<svg version="1.1" xmlns="http://www.w3.org/2000/svg" xmlns:xlink="http://www.w3.org/1999/xlink" preserveAspectRatio="xMidYMid meet" viewBox="0 0 160 121" width="160" height="121"><defs><path d="M34.31 2.93L35.61 3.14L36.88 3.4L38.13 3.71L39.36 4.08L40.57 4.5L41.75 4.97L42.91 5.49L44.04 6.06L45.14 6.67L46.21 7.33L47.25 8.03L48.26 8.78L49.23 9.57L50.17 10.39L51.07 11.26L51.94 12.16L52.77 13.1L53.55 14.08L54.3 15.08L55 16.12L55.66 17.19L56.28 18.3L56.84 19.43L57.36 20.58L57.83 21.76L58.25 22.97L58.62 24.2L58.93 25.45L59.19 26.73L59.4 28.02L59.55 29.33L59.64 30.66L59.67 32L59.64 33.34L59.55 34.67L59.4 35.98L59.19 37.27L58.93 38.55L58.62 39.8L58.25 41.03L57.83 42.24L57.41 43.31L83.13 51.8L85.12 51.11L87.06 50.44L88.96 49.79L90.81 49.15L92.62 48.52L94.39 47.92L96.11 47.33L97.79 46.75L99.42 46.19L101 45.65L102.55 45.12L104.04 44.6L105.5 44.11L106.9 43.62L108.27 43.16L109.59 42.71L110.86 42.27L112.09 41.85L113.27 41.45L114.41 41.06L115.51 40.69L116.56 40.34L117.56 40L118.52 39.67L119.44 39.36L120.31 39.07L121.14 38.79L121.92 38.53L122.66 38.28L123.35 38.05L124 37.84L124.6 37.64L125.16 37.45L125.68 37.29L126.14 37.13L126.57 37L126.95 36.88L127.28 36.77L127.58 36.68L127.82 36.61L129.23 36.25L130.62 35.96L131.99 35.73L133.33 35.56L134.65 35.45L135.94 35.39L137.21 35.39L138.45 35.43L139.66 35.52L140.85 35.65L142.01 35.83L143.14 36.04L144.23 36.28L145.3 36.55L146.34 36.86L147.34 37.18L148.31 37.53L149.25 37.9L150.15 38.28L151.02 38.68L151.86 39.08L152.65 39.5L153.41 39.91L154.14 40.33L154.82 40.75L155.46 41.16L156.07 41.56L156.63 41.95L157.16 42.33L157.64 42.69L158.08 43.03L158.47 43.34L158.83 43.63L159.13 43.9L159.4 44.13L159.61 44.32L159.78 44.48L159.9 44.59L159.98 44.66L160 44.69L159.68 44.78L159.31 44.89L158.87 45.01L158.37 45.15L157.81 45.31L157.19 45.49L156.5 45.68L155.76 45.89L154.96 46.11L154.09 46.35L153.17 46.61L152.18 46.89L151.13 47.18L150.02 47.49L148.85 47.81L147.62 48.15L146.33 48.51L144.98 48.88L143.56 49.27L142.09 49.68L140.55 50.11L138.96 50.55L137.3 51.01L135.58 51.48L133.8 51.97L131.96 52.48L130.06 53L128.1 53.54L126.07 54.1L123.99 54.68L121.84 55.27L119.64 55.87L117.37 56.5L115.04 57.14L112.65 57.8L110.2 58.47L107.69 59.16L105.12 59.87L102.49 60.59L99.79 61.33L102.21 61.99L104.58 62.64L106.9 63.27L109.17 63.9L111.4 64.51L113.58 65.1L115.72 65.69L117.81 66.26L119.85 66.82L121.84 67.37L123.79 67.9L125.69 68.42L127.55 68.93L129.36 69.43L131.12 69.92L132.83 70.39L134.5 70.85L136.12 71.3L137.7 71.73L139.23 72.15L140.71 72.56L142.14 72.96L143.53 73.34L144.87 73.72L146.17 74.08L147.42 74.42L148.62 74.76L149.78 75.08L150.88 75.39L151.95 75.69L152.96 75.97L153.93 76.25L154.85 76.51L155.73 76.75L156.56 76.99L157.34 77.21L158.07 77.42L158.76 77.62L159.4 77.81L160 77.98L159.88 78.04L159.76 78.11L159.65 78.18L159.54 78.25L159.43 78.33L159.33 78.4L159.23 78.48L159.13 78.56L159.03 78.64L158.94 78.73L158.85 78.81L158.76 78.9L158.67 78.99L158.59 79.08L158.5 79.17L158.42 79.26L158.33 79.35L158.25 79.45L158.17 79.55L158.09 79.64L158 79.74L157.92 79.84L157.84 79.94L157.75 80.05L157.67 80.15L157.58 80.25L157.49 80.36L157.4 80.46L157.31 80.57L157.21 80.67L157.11 80.78L157.01 80.89L156.91 80.99L156.8 81.1L156.69 81.21L156.58 81.32L156.46 81.42L156.34 81.53L156.21 81.64L156.08 81.75L155.94 81.86L155.79 81.97L155.64 82.08L155.49 82.2L155.33 82.31L155.17 82.42L155 82.53L154.84 82.64L154.67 82.74L154.49 82.85L154.32 82.96L154.14 83.07L153.96 83.17L153.78 83.28L153.6 83.38L153.42 83.48L153.24 83.58L153.06 83.68L152.87 83.78L152.69 83.87L152.51 83.97L152.33 84.06L152.15 84.15L151.97 84.24L151.79 84.33L151.62 84.42L151.45 84.5L151.28 84.59L151.11 84.67L150.94 84.74L150.78 84.82L150.63 84.89L150.47 84.96L150.32 85.03L150.18 85.1L150.04 85.16L149.9 85.22L149.77 85.28L149.64 85.34L149.53 85.39L149.02 85.6L148.5 85.8L147.96 85.97L147.41 86.13L146.85 86.27L146.28 86.4L145.7 86.52L145.11 86.62L144.51 86.71L143.92 86.78L143.31 86.85L142.71 86.9L142.11 86.94L141.51 86.97L140.91 86.99L140.32 87.01L139.74 87.01L139.16 87.01L138.59 87L138.04 86.99L137.49 86.97L136.96 86.94L136.45 86.92L135.95 86.88L135.47 86.85L135.01 86.81L134.57 86.77L134.15 86.73L133.76 86.69L133.4 86.65L133.06 86.61L132.75 86.57L132.48 86.53L132.23 86.5L132.02 86.47L131.84 86.44L131.7 86.42L131.6 86.41L131.54 86.4L131.52 86.39L131.24 86.31L130.92 86.22L130.55 86.12L130.13 85.99L129.67 85.86L129.15 85.7L128.59 85.54L127.98 85.35L127.32 85.16L126.62 84.94L125.86 84.71L125.06 84.47L124.21 84.21L123.31 83.94L122.37 83.65L121.37 83.35L120.33 83.03L119.24 82.69L118.1 82.34L116.92 81.98L115.68 81.6L114.4 81.21L113.07 80.8L111.69 80.37L110.27 79.93L108.8 79.48L107.27 79.01L105.7 78.52L104.09 78.02L102.42 77.51L100.71 76.98L98.95 76.43L97.14 75.87L95.28 75.29L93.37 74.7L91.42 74.1L89.42 73.48L87.37 72.84L85.27 72.19L83.13 71.52L57.73 79.34L58.16 80.43L58.58 81.64L58.95 82.87L59.27 84.12L59.53 85.39L59.73 86.69L59.88 88L59.97 89.32L60 90.67L59.97 92.01L59.88 93.34L59.73 94.65L59.53 95.94L59.27 97.21L58.95 98.46L58.58 99.7L58.16 100.9L57.69 102.08L57.18 103.24L56.61 104.37L55.99 105.47L55.34 106.54L54.63 107.58L53.89 108.59L53.1 109.57L52.27 110.51L51.41 111.41L50.5 112.27L49.57 113.1L48.59 113.89L47.58 114.63L46.54 115.34L45.47 116L44.37 116.61L43.24 117.18L42.08 117.69L40.9 118.16L39.69 118.58L38.46 118.95L37.21 119.27L35.94 119.53L34.65 119.73L33.34 119.88L32.01 119.97L30.67 120L29.32 119.97L28 119.88L26.69 119.73L25.39 119.53L24.12 119.27L22.87 118.95L21.64 118.58L20.43 118.16L19.25 117.69L18.09 117.18L16.96 116.61L15.86 116L14.79 115.34L13.75 114.63L12.74 113.89L11.77 113.1L10.83 112.27L9.93 111.41L9.06 110.51L8.23 109.57L7.45 108.59L6.7 107.58L6 106.54L5.34 105.47L4.72 104.37L4.16 103.24L3.64 102.08L3.17 100.9L2.75 99.7L2.38 98.46L2.07 97.21L1.81 95.94L1.6 94.65L1.45 93.34L1.36 92.01L1.33 90.67L1.36 89.32L1.45 88L1.6 86.69L1.81 85.39L2.07 84.12L2.38 82.87L2.75 81.64L3.17 80.43L3.64 79.25L4.16 78.09L4.72 76.96L5.34 75.86L6 74.79L6.7 73.75L7.45 72.74L8.23 71.77L9.06 70.83L9.93 69.92L10.83 69.06L11.77 68.23L12.74 67.45L13.75 66.7L14.79 66L15.86 65.34L16.96 64.72L18.09 64.16L19.25 63.64L20.43 63.17L21.64 62.75L22.87 62.38L24.12 62.07L25.39 61.81L26.69 61.6L28 61.45L29.32 61.36L30.67 61.33L32.01 61.36L33.34 61.45L34.65 61.6L35.94 61.81L37.21 62.07L38.46 62.38L39.69 62.75L40.9 63.17L42.08 63.64L43.24 64.16L44.37 64.72L45.47 65.34L46.54 66L47.58 66.7L47.6 66.71L65.25 61.33L47.37 55.88L47.25 55.97L46.21 56.67L45.14 57.33L44.04 57.94L42.91 58.51L41.75 59.03L40.57 59.5L39.36 59.92L38.13 60.29L36.88 60.6L35.61 60.86L34.31 61.07L33 61.21L31.68 61.3L30.33 61.33L28.99 61.3L27.66 61.21L26.35 61.07L25.06 60.86L23.79 60.6L22.54 60.29L21.31 59.92L20.1 59.5L18.92 59.03L17.76 58.51L16.63 57.94L15.53 57.33L14.46 56.67L13.42 55.97L12.41 55.22L11.43 54.43L10.5 53.61L9.59 52.74L8.73 51.84L7.9 50.9L7.11 49.92L6.37 48.92L5.66 47.88L5.01 46.81L4.39 45.7L3.82 44.57L3.31 43.42L2.84 42.24L2.42 41.03L2.05 39.8L1.73 38.55L1.47 37.27L1.27 35.98L1.12 34.67L1.03 33.34L1 32L1.03 30.66L1.12 29.33L1.27 28.02L1.47 26.73L1.73 25.45L2.05 24.2L2.42 22.97L2.84 21.76L3.31 20.58L3.82 19.43L4.39 18.3L5.01 17.19L5.66 16.12L6.37 15.08L7.11 14.08L7.9 13.1L8.73 12.16L9.59 11.26L10.5 10.39L11.43 9.57L12.41 8.78L13.42 8.03L14.46 7.33L15.53 6.67L16.63 6.06L17.76 5.49L18.92 4.97L20.1 4.5L21.31 4.08L22.54 3.71L23.79 3.4L25.06 3.14L26.35 2.93L27.66 2.79L28.99 2.7L30.33 2.67L31.68 2.7L33 2.79L33 2.79L34.31 2.93ZM26.79 74.22L25.57 74.56L24.38 74.99L23.24 75.49L22.14 76.08L21.1 76.75L20.1 77.49L19.17 78.3L18.3 79.17L17.49 80.1L16.75 81.1L16.08 82.14L15.49 83.24L14.99 84.38L14.56 85.57L14.22 86.79L13.98 88.06L13.83 89.35L13.78 90.67L13.83 91.99L13.98 93.28L14.22 94.54L14.56 95.76L14.99 96.95L15.49 98.09L16.08 99.19L16.75 100.24L17.49 101.23L18.3 102.16L19.17 103.04L20.1 103.84L21.1 104.58L22.14 105.25L23.24 105.84L24.38 106.35L25.57 106.77L26.79 107.11L28.05 107.35L29.35 107.5L30.67 107.56L31.99 107.5L33.28 107.35L34.54 107.11L35.76 106.77L36.95 106.35L38.09 105.84L39.19 105.25L40.24 104.58L41.23 103.84L42.16 103.04L43.04 102.16L43.85 101.23L44.58 100.24L45.25 99.19L45.84 98.09L46.35 96.95L46.77 95.76L47.11 94.54L47.35 93.28L47.5 91.99L47.56 90.67L47.5 89.35L47.35 88.06L47.11 86.79L46.77 85.57L46.35 84.38L45.84 83.24L45.25 82.14L44.58 81.1L43.85 80.1L43.04 79.17L42.16 78.3L41.23 77.49L40.24 76.75L39.19 76.08L38.09 75.49L36.95 74.99L35.76 74.56L34.54 74.22L33.28 73.98L31.99 73.83L30.67 73.78L29.35 73.83L28.05 73.98L28.05 73.98L26.79 74.22ZM26.46 15.56L25.24 15.89L24.05 16.32L22.91 16.83L21.81 17.42L20.76 18.08L19.77 18.82L18.84 19.63L17.96 20.5L17.15 21.44L16.42 22.43L15.75 23.48L15.16 24.57L14.65 25.72L14.23 26.9L13.89 28.13L13.65 29.39L13.5 30.68L13.44 32L13.5 33.32L13.65 34.61L13.89 35.87L14.23 37.1L14.65 38.28L15.16 39.43L15.75 40.52L16.42 41.57L17.15 42.56L17.96 43.5L18.84 44.37L19.77 45.18L20.76 45.92L21.81 46.58L22.91 47.17L24.05 47.68L25.24 48.11L26.46 48.44L27.72 48.69L29.01 48.84L30.33 48.89L31.65 48.84L32.95 48.69L34.21 48.44L35.43 48.11L36.62 47.68L37.76 47.17L38.86 46.58L39.9 45.92L40.9 45.18L41.83 44.37L42.7 43.5L43.51 42.56L44.25 41.57L44.92 40.52L45.51 39.43L46.01 38.28L46.44 37.1L46.78 35.87L47.02 34.61L47.17 33.32L47.22 32L47.17 30.68L47.02 29.39L46.78 28.13L46.44 26.9L46.01 25.72L45.51 24.57L44.92 23.48L44.25 22.43L43.51 21.44L42.7 20.5L41.83 19.63L40.9 18.82L39.9 18.08L38.86 17.42L37.76 16.83L36.62 16.32L35.43 15.89L34.21 15.56L32.95 15.31L31.65 15.16L30.33 15.11L29.01 15.16L27.72 15.31L27.72 15.31L26.46 15.56Z" id="baHewxLcu"></path></defs><g><g><g><use xlink:href="#baHewxLcu" opacity="1" fill="#000000" fill-opacity="1"></use><g><use xlink:href="#baHewxLcu" opacity="1" fill-opacity="0" stroke="#000000" stroke-width="1" stroke-opacity="0"></use></g></g></g></g></svg>